<svg xmlns="http://www.w3.org/2000/svg" xmlns:xlink="http://www.w3.org/1999/xlink" width="500" zoomAndPan="magnify" viewBox="0 0 375 374.999991" height="500" preserveAspectRatio="xMidYMid meet" version="1.0"><defs><clipPath id="e98b4870d6"><path d="M 10.09375 12.753906 L 359 12.753906 L 359 362.253906 L 10.09375 362.253906 Z M 10.09375 12.753906 " clip-rule="nonzero"/></clipPath><clipPath id="5eff24f341"><path d="M 196 128.921875 L 245.921875 128.921875 L 245.921875 166 L 196 166 Z M 196 128.921875 " clip-rule="nonzero"/></clipPath><clipPath id="5573c57389"><path d="M 128.921875 141 L 245.921875 141 L 245.921875 245.921875 L 128.921875 245.921875 Z M 128.921875 141 " clip-rule="nonzero"/></clipPath></defs><g clip-path="url(#e98b4870d6)"><path fill="#6ab55e" d="M 184.011719 362.296875 C 186.523438 362.292969 189.035156 362.238281 191.546875 362.125 C 194.054688 362.015625 196.5625 361.851562 199.0625 361.632812 C 201.566406 361.410156 204.0625 361.140625 206.554688 360.8125 C 209.042969 360.484375 211.527344 360.105469 214 359.671875 C 216.476562 359.238281 218.9375 358.753906 221.390625 358.210938 C 223.847656 357.671875 226.285156 357.082031 228.714844 356.4375 C 231.140625 355.792969 233.554688 355.09375 235.953125 354.347656 C 238.351562 353.597656 240.730469 352.796875 243.09375 351.949219 C 245.457031 351.097656 247.804688 350.195312 250.128906 349.242188 C 252.453125 348.289062 254.753906 347.289062 257.035156 346.238281 C 259.316406 345.1875 261.574219 344.085938 263.808594 342.9375 C 266.042969 341.789062 268.253906 340.59375 270.4375 339.351562 C 272.617188 338.109375 274.773438 336.816406 276.902344 335.480469 C 279.027344 334.144531 281.125 332.765625 283.191406 331.335938 C 285.261719 329.910156 287.296875 328.441406 289.300781 326.925781 C 291.304688 325.410156 293.277344 323.855469 295.214844 322.257812 C 297.152344 320.65625 299.050781 319.015625 300.917969 317.335938 C 302.785156 315.65625 304.617188 313.933594 306.410156 312.175781 C 308.199219 310.414062 309.953125 308.617188 311.671875 306.78125 C 313.386719 304.949219 315.058594 303.074219 316.695312 301.167969 C 318.328125 299.261719 319.921875 297.320312 321.472656 295.34375 C 323.023438 293.367188 324.53125 291.359375 325.996094 289.316406 C 327.460938 287.277344 328.882812 285.207031 330.257812 283.105469 C 331.632812 281 332.960938 278.871094 334.246094 276.710938 C 335.527344 274.550781 336.765625 272.367188 337.957031 270.152344 C 339.144531 267.941406 340.285156 265.703125 341.378906 263.441406 C 342.472656 261.179688 343.515625 258.898438 344.511719 256.589844 C 345.507812 254.285156 346.449219 251.957031 347.34375 249.609375 C 348.242188 247.261719 349.085938 244.898438 349.875 242.511719 C 350.667969 240.128906 351.410156 237.730469 352.101562 235.3125 C 352.789062 232.898438 353.425781 230.46875 354.011719 228.027344 C 354.597656 225.582031 355.128906 223.128906 355.609375 220.664062 C 356.140625 219.957031 356.484375 219.171875 356.640625 218.300781 C 356.796875 217.433594 356.75 216.578125 356.5 215.730469 C 357.011719 212.617188 357.4375 209.496094 357.78125 206.359375 C 358.125 203.222656 358.382812 200.082031 358.554688 196.933594 C 358.726562 193.78125 358.8125 190.632812 358.816406 187.476562 C 358.816406 184.324219 358.734375 181.171875 358.5625 178.023438 C 358.394531 174.875 358.140625 171.730469 357.800781 168.59375 C 357.460938 165.460938 357.039062 162.335938 356.53125 159.222656 C 356.019531 156.109375 355.429688 153.011719 354.753906 149.933594 C 354.074219 146.851562 353.316406 143.792969 352.476562 140.753906 C 351.632812 137.714844 350.710938 134.699219 349.703125 131.710938 C 348.699219 128.71875 347.613281 125.757812 346.449219 122.828125 C 345.28125 119.898438 344.039062 117 342.714844 114.136719 C 341.394531 111.273438 339.996094 108.449219 338.519531 105.660156 C 337.042969 102.875 335.492188 100.128906 333.871094 97.425781 C 332.246094 94.722656 330.550781 92.0625 328.78125 89.453125 C 327.011719 86.839844 325.175781 84.277344 323.269531 81.765625 C 321.363281 79.253906 319.386719 76.796875 317.347656 74.390625 C 315.308594 71.984375 313.203125 69.636719 311.035156 67.34375 C 308.871094 65.054688 306.640625 62.824219 304.351562 60.652344 C 302.066406 58.480469 299.71875 56.375 297.316406 54.332031 C 294.914062 52.289062 292.460938 50.308594 289.949219 48.398438 C 287.441406 46.488281 284.882812 44.648438 282.273438 42.875 C 279.664062 41.105469 277.007812 39.402344 274.308594 37.777344 C 271.605469 36.148438 268.863281 34.59375 266.078125 33.113281 C 263.292969 31.632812 260.46875 30.230469 257.609375 28.90625 C 254.746094 27.578125 251.851562 26.328125 248.921875 25.160156 C 245.992188 23.988281 243.035156 22.898438 240.046875 21.890625 C 237.058594 20.878906 234.046875 19.953125 231.007812 19.105469 C 227.96875 18.261719 224.910156 17.496094 221.832031 16.816406 C 218.75 16.136719 215.65625 15.539062 212.542969 15.023438 C 209.429688 14.511719 206.308594 14.082031 203.171875 13.738281 C 200.039062 13.394531 196.894531 13.136719 193.746094 12.964844 C 190.597656 12.789062 187.445312 12.699219 184.292969 12.699219 L 184.011719 12.699219 C 181.152344 12.699219 178.292969 12.769531 175.4375 12.910156 C 172.578125 13.050781 169.726562 13.257812 166.878906 13.539062 C 164.03125 13.820312 161.195312 14.171875 158.363281 14.589844 C 155.535156 15.007812 152.71875 15.5 149.910156 16.058594 C 147.105469 16.613281 144.316406 17.242188 141.539062 17.9375 C 138.765625 18.632812 136.007812 19.394531 133.269531 20.226562 C 130.535156 21.054688 127.820312 21.953125 125.125 22.917969 C 122.429688 23.878906 119.761719 24.910156 117.121094 26.003906 C 114.476562 27.097656 111.863281 28.257812 109.277344 29.480469 C 106.691406 30.703125 104.136719 31.988281 101.613281 33.339844 C 99.089844 34.6875 96.601562 36.097656 94.148438 37.566406 C 91.695312 39.039062 89.277344 40.566406 86.898438 42.15625 C 84.519531 43.746094 82.183594 45.394531 79.886719 47.097656 C 77.585938 48.800781 75.332031 50.5625 73.121094 52.375 C 70.910156 54.191406 68.746094 56.058594 66.625 57.980469 C 64.503906 59.902344 62.433594 61.871094 60.410156 63.894531 C 58.386719 65.917969 56.417969 67.988281 54.496094 70.109375 C 52.574219 72.230469 50.707031 74.394531 48.890625 76.605469 C 47.078125 78.816406 45.316406 81.070312 43.613281 83.371094 C 41.910156 85.667969 40.261719 88.003906 38.671875 90.382812 C 37.082031 92.761719 35.554688 95.179688 34.082031 97.632812 C 32.613281 100.085938 31.203125 102.574219 29.851562 105.097656 C 28.503906 107.621094 27.21875 110.175781 25.996094 112.761719 C 24.773438 115.347656 23.613281 117.960938 22.519531 120.605469 C 21.425781 123.246094 20.394531 125.917969 19.429688 128.609375 C 18.46875 131.304688 17.570312 134.019531 16.738281 136.757812 C 15.910156 139.492188 15.148438 142.25 14.453125 145.023438 C 13.757812 147.800781 13.128906 150.589844 12.570312 153.394531 C 12.015625 156.203125 11.523438 159.019531 11.105469 161.847656 C 10.683594 164.679688 10.335938 167.515625 10.054688 170.363281 C 9.773438 173.210938 9.5625 176.0625 9.425781 178.921875 C 9.285156 181.777344 9.214844 184.636719 9.214844 187.496094 C 9.214844 190.359375 9.285156 193.21875 9.425781 196.074219 C 9.5625 198.933594 9.773438 201.785156 10.054688 204.632812 C 10.335938 207.476562 10.683594 210.316406 11.105469 213.144531 C 11.523438 215.976562 12.015625 218.792969 12.570312 221.601562 C 13.128906 224.40625 13.757812 227.195312 14.453125 229.972656 C 15.148438 232.746094 15.910156 235.503906 16.738281 238.238281 C 17.570312 240.976562 18.46875 243.691406 19.429688 246.386719 C 20.394531 249.078125 21.425781 251.746094 22.519531 254.390625 C 23.613281 257.035156 24.773438 259.648438 25.996094 262.234375 C 27.21875 264.820312 28.503906 267.375 29.851562 269.898438 C 31.203125 272.421875 32.613281 274.910156 34.082031 277.363281 C 35.554688 279.816406 37.082031 282.234375 38.671875 284.613281 C 40.261719 286.988281 41.910156 289.328125 43.613281 291.625 C 45.316406 293.921875 47.078125 296.179688 48.890625 298.390625 C 50.707031 300.601562 52.574219 302.765625 54.496094 304.886719 C 56.417969 307.007812 58.386719 309.078125 60.410156 311.101562 C 62.433594 313.121094 64.503906 315.09375 66.625 317.015625 C 68.746094 318.9375 70.910156 320.804688 73.121094 322.621094 C 75.332031 324.433594 77.585938 326.195312 79.886719 327.898438 C 82.183594 329.601562 84.519531 331.25 86.898438 332.839844 C 89.277344 334.429688 91.695312 335.957031 94.148438 337.429688 C 96.601562 338.898438 99.089844 340.308594 101.613281 341.65625 C 104.136719 343.007812 106.691406 344.292969 109.277344 345.515625 C 111.863281 346.738281 114.476562 347.898438 117.121094 348.992188 C 119.761719 350.085938 122.429688 351.117188 125.125 352.078125 C 127.820312 353.042969 130.535156 353.941406 133.269531 354.769531 C 136.007812 355.601562 138.765625 356.363281 141.539062 357.058594 C 144.316406 357.753906 147.105469 358.382812 149.910156 358.9375 C 152.71875 359.496094 155.535156 359.984375 158.363281 360.40625 C 161.195312 360.824219 164.03125 361.175781 166.878906 361.457031 C 169.726562 361.738281 172.578125 361.945312 175.4375 362.085938 C 178.292969 362.226562 181.152344 362.296875 184.011719 362.296875 Z M 37.527344 260.292969 L 40.316406 230.140625 L 66.960938 232.089844 C 68.0625 234.988281 69.269531 237.839844 70.582031 240.648438 C 71.894531 243.457031 73.3125 246.214844 74.828125 248.917969 C 76.347656 251.621094 77.960938 254.265625 79.675781 256.847656 C 81.390625 259.433594 83.195312 261.949219 85.097656 264.398438 C 87 266.851562 88.988281 269.226562 91.0625 271.527344 C 93.140625 273.832031 95.300781 276.050781 97.539062 278.195312 C 99.78125 280.335938 102.101562 282.394531 104.492188 284.363281 C 106.886719 286.332031 109.351562 288.210938 111.886719 290 C 114.417969 291.789062 117.015625 293.480469 119.671875 295.074219 C 122.332031 296.667969 125.046875 298.164062 127.816406 299.558594 C 130.585938 300.949219 133.402344 302.238281 136.269531 303.425781 C 139.132812 304.609375 142.039062 305.6875 144.984375 306.65625 C 147.929688 307.625 150.90625 308.484375 153.914062 309.230469 C 156.921875 309.980469 159.957031 310.617188 163.011719 311.140625 C 166.066406 311.664062 169.140625 312.074219 172.226562 312.367188 C 175.3125 312.664062 178.40625 312.847656 181.503906 312.914062 L 200.429688 333.453125 L 181.839844 351.207031 C 178.101562 351.152344 174.367188 350.96875 170.640625 350.660156 C 166.914062 350.351562 163.203125 349.914062 159.507812 349.347656 C 155.808594 348.785156 152.136719 348.097656 148.488281 347.28125 C 144.839844 346.464844 141.222656 345.527344 137.636719 344.460938 C 134.050781 343.398438 130.507812 342.214844 127.003906 340.910156 C 123.5 339.605469 120.042969 338.179688 116.636719 336.636719 C 113.230469 335.09375 109.882812 333.4375 106.589844 331.664062 C 103.296875 329.894531 100.066406 328.011719 96.902344 326.019531 C 93.738281 324.027344 90.648438 321.925781 87.628906 319.722656 C 84.605469 317.519531 81.664062 315.210938 78.804688 312.808594 C 75.941406 310.402344 73.164062 307.898438 70.472656 305.304688 C 67.78125 302.707031 65.183594 300.023438 62.675781 297.25 C 60.167969 294.472656 57.757812 291.617188 55.445312 288.679688 C 53.136719 285.738281 50.925781 282.722656 48.820312 279.632812 C 46.714844 276.542969 44.71875 273.386719 42.832031 270.15625 C 40.941406 266.929688 39.164062 263.644531 37.5 260.292969 Z M 184.011719 73.230469 C 185.882812 73.230469 187.753906 73.277344 189.621094 73.367188 C 191.488281 73.460938 193.351562 73.597656 195.214844 73.78125 C 197.074219 73.964844 198.929688 74.195312 200.78125 74.46875 C 202.628906 74.742188 204.472656 75.0625 206.304688 75.425781 C 208.140625 75.792969 209.964844 76.203125 211.777344 76.65625 C 213.589844 77.109375 215.394531 77.609375 217.183594 78.152344 C 218.972656 78.695312 220.746094 79.28125 222.507812 79.910156 C 224.269531 80.539062 226.011719 81.214844 227.742188 81.929688 C 229.46875 82.644531 231.179688 83.402344 232.867188 84.203125 C 234.558594 85 236.230469 85.84375 237.878906 86.722656 C 239.527344 87.605469 241.152344 88.527344 242.757812 89.488281 C 244.363281 90.449219 245.941406 91.449219 247.496094 92.488281 C 249.050781 93.527344 250.578125 94.605469 252.082031 95.71875 C 253.582031 96.832031 255.058594 97.980469 256.503906 99.167969 C 257.949219 100.355469 259.363281 101.574219 260.75 102.832031 C 262.136719 104.085938 263.488281 105.375 264.8125 106.699219 C 266.132812 108.023438 267.421875 109.375 268.679688 110.761719 C 269.933594 112.148438 271.15625 113.5625 272.34375 115.007812 C 273.527344 116.453125 274.679688 117.925781 275.792969 119.429688 C 276.90625 120.929688 277.984375 122.460938 279.023438 124.015625 C 280.0625 125.570312 281.0625 127.148438 282.023438 128.753906 C 282.984375 130.355469 283.90625 131.984375 284.789062 133.632812 C 285.667969 135.28125 286.507812 136.953125 287.308594 138.644531 C 288.109375 140.332031 288.867188 142.042969 289.582031 143.769531 C 290.296875 145.496094 290.96875 147.242188 291.601562 149.003906 C 292.230469 150.761719 292.816406 152.539062 293.359375 154.328125 C 293.902344 156.117188 294.402344 157.917969 294.855469 159.734375 C 295.308594 161.546875 295.71875 163.371094 296.085938 165.207031 C 296.449219 167.039062 296.769531 168.882812 297.042969 170.730469 C 297.316406 172.582031 297.546875 174.4375 297.730469 176.296875 C 297.914062 178.160156 298.050781 180.023438 298.140625 181.890625 C 298.234375 183.757812 298.28125 185.628906 298.28125 187.496094 C 298.28125 189.367188 298.234375 191.238281 298.140625 193.105469 C 298.050781 194.972656 297.914062 196.835938 297.730469 198.699219 C 297.546875 200.558594 297.316406 202.414062 297.042969 204.265625 C 296.769531 206.113281 296.449219 207.957031 296.085938 209.789062 C 295.71875 211.625 295.308594 213.449219 294.855469 215.261719 C 294.402344 217.078125 293.902344 218.878906 293.359375 220.667969 C 292.816406 222.457031 292.230469 224.230469 291.601562 225.992188 C 290.96875 227.753906 290.296875 229.496094 289.582031 231.226562 C 288.867188 232.953125 288.109375 234.664062 287.308594 236.351562 C 286.507812 238.042969 285.667969 239.714844 284.789062 241.363281 C 283.90625 243.011719 282.984375 244.636719 282.023438 246.242188 C 281.0625 247.847656 280.0625 249.425781 279.023438 250.980469 C 277.984375 252.535156 276.90625 254.0625 275.792969 255.566406 C 274.679688 257.070312 273.527344 258.542969 272.34375 259.988281 C 271.15625 261.433594 269.933594 262.847656 268.679688 264.234375 C 267.421875 265.621094 266.132812 266.972656 264.8125 268.296875 C 263.488281 269.617188 262.136719 270.90625 260.75 272.164062 C 259.363281 273.417969 257.949219 274.640625 256.503906 275.828125 C 255.058594 277.011719 253.582031 278.164062 252.082031 279.277344 C 250.578125 280.390625 249.050781 281.46875 247.496094 282.507812 C 245.941406 283.546875 244.363281 284.546875 242.757812 285.507812 C 241.152344 286.46875 239.527344 287.390625 237.878906 288.273438 C 236.230469 289.152344 234.558594 289.992188 232.867188 290.792969 C 231.179688 291.59375 229.46875 292.351562 227.742188 293.066406 C 226.011719 293.78125 224.269531 294.453125 222.507812 295.085938 C 220.746094 295.714844 218.972656 296.300781 217.183594 296.84375 C 215.394531 297.386719 213.589844 297.886719 211.777344 298.339844 C 209.964844 298.792969 208.140625 299.203125 206.304688 299.570312 C 204.472656 299.933594 202.628906 300.253906 200.78125 300.527344 C 198.929688 300.800781 197.074219 301.03125 195.214844 301.214844 C 193.351562 301.398438 191.488281 301.535156 189.621094 301.625 C 187.753906 301.71875 185.882812 301.765625 184.011719 301.765625 C 182.144531 301.765625 180.273438 301.71875 178.40625 301.625 C 176.539062 301.535156 174.675781 301.398438 172.8125 301.214844 C 170.953125 301.03125 169.097656 300.800781 167.246094 300.527344 C 165.398438 300.253906 163.554688 299.933594 161.722656 299.570312 C 159.886719 299.203125 158.0625 298.792969 156.25 298.339844 C 154.433594 297.886719 152.632812 297.386719 150.84375 296.84375 C 149.054688 296.300781 147.277344 295.714844 145.519531 295.085938 C 143.757812 294.453125 142.011719 293.78125 140.285156 293.066406 C 138.558594 292.351562 136.847656 291.59375 135.15625 290.792969 C 133.46875 289.992188 131.796875 289.152344 130.148438 288.273438 C 128.5 287.390625 126.871094 286.46875 125.269531 285.507812 C 123.664062 284.546875 122.085938 283.546875 120.53125 282.507812 C 118.976562 281.46875 117.445312 280.390625 115.945312 279.277344 C 114.441406 278.164062 112.96875 277.011719 111.523438 275.828125 C 110.078125 274.640625 108.664062 273.417969 107.277344 272.164062 C 105.890625 270.90625 104.535156 269.617188 103.214844 268.296875 C 101.890625 266.972656 100.601562 265.621094 99.347656 264.234375 C 98.089844 262.847656 96.871094 261.433594 95.683594 259.988281 C 94.496094 258.542969 93.347656 257.070312 92.234375 255.566406 C 91.121094 254.0625 90.042969 252.535156 89.003906 250.980469 C 87.964844 249.425781 86.964844 247.847656 86.003906 246.242188 C 85.042969 244.636719 84.121094 243.011719 83.238281 241.363281 C 82.359375 239.714844 81.515625 238.042969 80.71875 236.351562 C 79.917969 234.664062 79.160156 232.953125 78.445312 231.226562 C 77.730469 229.496094 77.054688 227.753906 76.425781 225.992188 C 75.796875 224.230469 75.210938 222.457031 74.667969 220.667969 C 74.125 218.878906 73.625 217.078125 73.171875 215.261719 C 72.714844 213.449219 72.308594 211.625 71.941406 209.789062 C 71.578125 207.957031 71.257812 206.113281 70.984375 204.265625 C 70.710938 202.414062 70.480469 200.558594 70.296875 198.699219 C 70.113281 196.835938 69.976562 194.972656 69.882812 193.105469 C 69.792969 191.238281 69.746094 189.367188 69.746094 187.496094 C 69.746094 185.628906 69.792969 183.757812 69.882812 181.890625 C 69.976562 180.023438 70.113281 178.160156 70.296875 176.296875 C 70.480469 174.4375 70.710938 172.582031 70.984375 170.730469 C 71.257812 168.882812 71.578125 167.039062 71.941406 165.207031 C 72.308594 163.371094 72.714844 161.546875 73.171875 159.734375 C 73.625 157.917969 74.125 156.117188 74.667969 154.328125 C 75.210938 152.539062 75.796875 150.761719 76.425781 149.003906 C 77.054688 147.242188 77.730469 145.496094 78.445312 143.769531 C 79.160156 142.042969 79.917969 140.332031 80.71875 138.644531 C 81.515625 136.953125 82.359375 135.28125 83.238281 133.632812 C 84.121094 131.984375 85.042969 130.355469 86.003906 128.753906 C 86.964844 127.148438 87.964844 125.570312 89.003906 124.015625 C 90.042969 122.460938 91.121094 120.929688 92.234375 119.429688 C 93.347656 117.925781 94.496094 116.453125 95.683594 115.007812 C 96.871094 113.5625 98.089844 112.148438 99.347656 110.761719 C 100.601562 109.375 101.890625 108.023438 103.214844 106.699219 C 104.535156 105.378906 105.890625 104.085938 107.277344 102.832031 C 108.664062 101.574219 110.078125 100.355469 111.523438 99.167969 C 112.96875 97.980469 114.441406 96.832031 115.945312 95.71875 C 117.445312 94.605469 118.976562 93.527344 120.53125 92.488281 C 122.085938 91.449219 123.664062 90.449219 125.269531 89.488281 C 126.871094 88.527344 128.5 87.605469 130.148438 86.722656 C 131.796875 85.84375 133.46875 85 135.15625 84.203125 C 136.847656 83.402344 138.558594 82.644531 140.285156 81.929688 C 142.011719 81.214844 143.757812 80.539062 145.519531 79.910156 C 147.277344 79.28125 149.054688 78.695312 150.84375 78.152344 C 152.632812 77.609375 154.433594 77.109375 156.25 76.65625 C 158.0625 76.203125 159.886719 75.792969 161.722656 75.425781 C 163.554688 75.0625 165.398438 74.742188 167.246094 74.46875 C 169.097656 74.195312 170.953125 73.964844 172.8125 73.78125 C 174.675781 73.597656 176.539062 73.460938 178.40625 73.367188 C 180.273438 73.277344 182.144531 73.230469 184.011719 73.230469 Z M 198.644531 350.398438 L 212.078125 337.578125 C 212.339844 337.328125 212.578125 337.054688 212.789062 336.757812 C 213 336.460938 213.175781 336.148438 213.328125 335.816406 C 213.476562 335.484375 213.589844 335.140625 213.671875 334.789062 C 213.753906 334.433594 213.800781 334.074219 213.8125 333.714844 C 213.824219 333.351562 213.800781 332.988281 213.742188 332.628906 C 213.683594 332.273438 213.589844 331.921875 213.460938 331.582031 C 213.335938 331.242188 213.175781 330.917969 212.984375 330.609375 C 212.792969 330.300781 212.574219 330.011719 212.328125 329.746094 L 196.164062 312.214844 C 199.578125 311.875 202.976562 311.398438 206.351562 310.78125 C 209.726562 310.164062 213.074219 309.410156 216.386719 308.519531 C 219.703125 307.628906 222.972656 306.601562 226.203125 305.445312 C 229.433594 304.285156 232.613281 302.996094 235.738281 301.574219 C 238.863281 300.15625 241.921875 298.609375 244.921875 296.941406 C 247.917969 295.269531 250.84375 293.480469 253.695312 291.570312 C 256.546875 289.660156 259.316406 287.636719 262 285.5 C 264.6875 283.363281 267.28125 281.117188 269.78125 278.769531 C 272.285156 276.421875 274.683594 273.972656 276.988281 271.425781 C 279.289062 268.878906 281.480469 266.242188 283.566406 263.519531 C 285.652344 260.792969 287.621094 257.984375 289.476562 255.097656 C 291.332031 252.210938 293.066406 249.253906 294.679688 246.222656 C 296.292969 243.195312 297.78125 240.105469 299.140625 236.953125 C 300.5 233.800781 301.726562 230.601562 302.824219 227.347656 C 303.921875 224.097656 304.886719 220.804688 305.710938 217.472656 C 306.539062 214.144531 307.230469 210.785156 307.785156 207.398438 L 333.453125 194.855469 L 344.90625 217.152344 C 344.5 219.328125 344.054688 221.496094 343.558594 223.652344 C 343.066406 225.808594 342.53125 227.957031 341.953125 230.09375 C 341.375 232.230469 340.75 234.351562 340.085938 236.464844 C 339.421875 238.574219 338.710938 240.671875 337.960938 242.753906 C 337.210938 244.835938 336.421875 246.902344 335.585938 248.953125 C 334.753906 251.003906 333.878906 253.035156 332.960938 255.050781 C 332.042969 257.0625 331.089844 259.058594 330.089844 261.035156 C 329.09375 263.011719 328.058594 264.964844 326.980469 266.898438 C 325.90625 268.835938 324.789062 270.746094 323.636719 272.632812 C 322.484375 274.523438 321.292969 276.386719 320.0625 278.230469 C 318.832031 280.070312 317.566406 281.882812 316.265625 283.671875 C 314.960938 285.464844 313.625 287.226562 312.25 288.960938 C 310.875 290.695312 309.46875 292.402344 308.023438 294.082031 C 306.582031 295.757812 305.105469 297.40625 303.59375 299.023438 C 302.085938 300.644531 300.542969 302.230469 298.96875 303.785156 C 297.394531 305.34375 295.789062 306.867188 294.152344 308.355469 C 292.519531 309.847656 290.851562 311.304688 289.15625 312.726562 C 287.464844 314.152344 285.742188 315.539062 283.988281 316.894531 C 282.238281 318.246094 280.460938 319.566406 278.65625 320.847656 C 276.851562 322.128906 275.023438 323.371094 273.167969 324.582031 C 271.3125 325.789062 269.433594 326.957031 267.53125 328.089844 C 265.628906 329.21875 263.707031 330.3125 261.757812 331.367188 C 259.8125 332.421875 257.84375 333.433594 255.859375 334.40625 C 253.871094 335.382812 251.863281 336.316406 249.839844 337.207031 C 247.8125 338.101562 245.769531 338.953125 243.710938 339.761719 C 241.652344 340.570312 239.574219 341.339844 237.484375 342.066406 C 235.394531 342.792969 233.289062 343.472656 231.171875 344.113281 C 229.050781 344.757812 226.921875 345.351562 224.777344 345.90625 C 222.636719 346.460938 220.484375 346.972656 218.320312 347.441406 C 216.15625 347.90625 213.984375 348.332031 211.804688 348.710938 C 209.625 349.089844 207.4375 349.425781 205.242188 349.714844 C 203.046875 350.003906 200.847656 350.25 198.644531 350.453125 Z M 347.664062 187.496094 C 347.664062 190.871094 347.527344 194.214844 347.332031 197.53125 L 340.894531 184.960938 C 340.726562 184.640625 340.535156 184.335938 340.3125 184.050781 C 340.085938 183.765625 339.839844 183.503906 339.566406 183.269531 C 339.289062 183.03125 338.996094 182.824219 338.679688 182.644531 C 338.367188 182.464844 338.039062 182.320312 337.695312 182.203125 C 337.351562 182.089844 337 182.007812 336.640625 181.960938 C 336.28125 181.914062 335.921875 181.902344 335.558594 181.929688 C 335.199219 181.953125 334.84375 182.011719 334.492188 182.101562 C 334.140625 182.195312 333.804688 182.324219 333.480469 182.480469 L 309.175781 194.355469 C 309.175781 192.070312 309.371094 189.8125 309.371094 187.496094 C 309.371094 185.585938 309.328125 183.671875 309.238281 181.761719 C 309.148438 179.847656 309.019531 177.9375 308.84375 176.035156 C 308.667969 174.128906 308.445312 172.226562 308.183594 170.332031 C 307.921875 168.4375 307.617188 166.546875 307.265625 164.667969 C 306.917969 162.785156 306.523438 160.910156 306.089844 159.046875 C 305.65625 157.183594 305.179688 155.332031 304.660156 153.488281 C 304.140625 151.648438 303.578125 149.820312 302.972656 148.003906 C 302.371094 146.1875 301.726562 144.386719 301.039062 142.597656 C 300.355469 140.8125 299.628906 139.042969 298.859375 137.289062 C 298.09375 135.535156 297.285156 133.800781 296.441406 132.085938 C 295.59375 130.367188 294.707031 128.671875 293.785156 126.996094 C 292.859375 125.320312 291.898438 123.667969 290.898438 122.035156 C 289.898438 120.402344 288.863281 118.792969 287.789062 117.210938 C 286.714844 115.625 285.609375 114.066406 284.460938 112.535156 C 283.316406 111 282.140625 109.492188 280.925781 108.011719 C 279.710938 106.535156 278.464844 105.082031 277.183594 103.660156 C 275.90625 102.238281 274.59375 100.84375 273.25 99.480469 C 271.90625 98.121094 270.53125 96.789062 269.125 95.488281 C 267.722656 94.191406 266.289062 92.921875 264.824219 91.6875 C 263.363281 90.453125 261.871094 89.253906 260.355469 88.089844 C 258.835938 86.921875 257.292969 85.792969 255.722656 84.699219 C 254.152344 83.601562 252.558594 82.542969 250.941406 81.523438 C 249.324219 80.5 247.683594 79.515625 246.019531 78.570312 C 244.359375 77.621094 242.675781 76.710938 240.96875 75.84375 C 239.265625 74.972656 237.542969 74.140625 235.796875 73.351562 C 234.054688 72.558594 232.296875 71.808594 230.519531 71.097656 C 228.742188 70.386719 226.949219 69.71875 225.144531 69.089844 C 223.335938 68.460938 221.515625 67.875 219.679688 67.332031 C 217.84375 66.785156 216 66.28125 214.140625 65.820312 C 212.285156 65.359375 210.417969 64.941406 208.539062 64.566406 C 206.664062 64.191406 204.78125 63.859375 202.886719 63.570312 C 200.996094 63.285156 199.097656 63.039062 197.195312 62.835938 L 212.078125 48.59375 C 212.339844 48.34375 212.574219 48.070312 212.78125 47.777344 C 212.992188 47.480469 213.167969 47.167969 213.316406 46.839844 C 213.464844 46.507812 213.578125 46.167969 213.660156 45.8125 C 213.738281 45.460938 213.785156 45.105469 213.796875 44.742188 C 213.808594 44.382812 213.785156 44.023438 213.726562 43.667969 C 213.667969 43.308594 213.578125 42.960938 213.453125 42.625 C 213.324219 42.285156 213.167969 41.960938 212.980469 41.652344 C 212.789062 41.34375 212.574219 41.058594 212.328125 40.789062 L 197.25 24.429688 C 199.78125 24.640625 202.304688 24.90625 204.824219 25.230469 C 207.34375 25.558594 209.851562 25.941406 212.351562 26.382812 C 214.851562 26.824219 217.339844 27.324219 219.816406 27.882812 C 222.292969 28.441406 224.757812 29.054688 227.203125 29.726562 C 229.652344 30.402344 232.085938 31.128906 234.5 31.914062 C 236.914062 32.699219 239.308594 33.542969 241.683594 34.4375 C 244.058594 35.335938 246.410156 36.285156 248.742188 37.292969 C 251.074219 38.296875 253.378906 39.359375 255.664062 40.472656 C 257.945312 41.585938 260.199219 42.75 262.425781 43.96875 C 264.652344 45.1875 266.851562 46.457031 269.019531 47.773438 C 271.191406 49.09375 273.328125 50.464844 275.429688 51.886719 C 277.535156 53.304688 279.605469 54.773438 281.644531 56.289062 C 283.679688 57.804688 285.679688 59.367188 287.644531 60.976562 C 289.609375 62.585938 291.535156 64.238281 293.421875 65.9375 C 295.308594 67.636719 297.15625 69.375 298.960938 71.160156 C 300.769531 72.945312 302.53125 74.769531 304.253906 76.636719 C 305.976562 78.503906 307.652344 80.40625 309.285156 82.351562 C 310.917969 84.296875 312.503906 86.277344 314.046875 88.296875 C 315.585938 90.3125 317.078125 92.367188 318.523438 94.453125 C 319.96875 96.539062 321.367188 98.660156 322.714844 100.8125 C 324.058594 102.964844 325.355469 105.148438 326.601562 107.359375 C 327.847656 109.570312 329.039062 111.8125 330.179688 114.082031 C 331.324219 116.347656 332.410156 118.640625 333.445312 120.960938 C 334.480469 123.277344 335.460938 125.621094 336.386719 127.984375 C 337.3125 130.347656 338.179688 132.734375 338.996094 135.136719 C 339.8125 137.542969 340.570312 139.964844 341.273438 142.402344 C 341.972656 144.84375 342.621094 147.300781 343.207031 149.769531 C 343.796875 152.238281 344.328125 154.722656 344.800781 157.214844 C 345.273438 159.710938 345.6875 162.214844 346.042969 164.726562 C 346.398438 167.242188 346.695312 169.761719 346.9375 172.289062 C 347.175781 174.816406 347.355469 177.347656 347.476562 179.886719 C 347.597656 182.421875 347.660156 184.957031 347.664062 187.496094 Z M 181.617188 23.902344 L 200.429688 44.332031 L 181.726562 62.082031 C 179.351562 62.128906 176.976562 62.238281 174.605469 62.417969 C 172.238281 62.597656 169.875 62.847656 167.515625 63.160156 C 165.160156 63.472656 162.816406 63.855469 160.480469 64.300781 C 158.144531 64.75 155.824219 65.261719 153.519531 65.839844 C 151.214844 66.421875 148.925781 67.066406 146.660156 67.773438 C 144.390625 68.484375 142.140625 69.257812 139.917969 70.09375 C 137.691406 70.929688 135.492188 71.832031 133.320312 72.792969 C 131.144531 73.753906 129 74.777344 126.886719 75.863281 C 124.769531 76.945312 122.6875 78.089844 120.636719 79.292969 C 118.585938 80.496094 116.570312 81.753906 114.59375 83.070312 C 112.613281 84.390625 110.671875 85.761719 108.773438 87.1875 C 106.871094 88.617188 105.011719 90.097656 103.195312 91.628906 C 101.378906 93.164062 99.605469 94.746094 97.878906 96.378906 C 96.152344 98.015625 94.476562 99.695312 92.84375 101.425781 C 91.214844 103.15625 89.632812 104.929688 88.101562 106.746094 C 86.570312 108.566406 85.09375 110.429688 83.671875 112.332031 C 82.246094 114.234375 80.878906 116.175781 79.5625 118.15625 C 78.25 120.140625 76.992188 122.15625 75.792969 124.207031 C 74.59375 126.261719 73.453125 128.347656 72.375 130.464844 C 71.292969 132.582031 70.273438 134.726562 69.316406 136.902344 C 68.355469 139.078125 67.460938 141.277344 66.625 143.503906 C 65.792969 145.730469 65.023438 147.980469 64.316406 150.25 C 63.613281 152.519531 62.972656 154.808594 62.394531 157.113281 C 61.820312 159.421875 61.3125 161.742188 60.867188 164.078125 C 60.425781 166.414062 60.046875 168.757812 59.738281 171.117188 C 59.425781 173.472656 59.183594 175.835938 59.007812 178.207031 C 58.832031 180.578125 58.726562 182.953125 58.683594 185.328125 C 58.644531 187.707031 58.671875 190.082031 58.765625 192.457031 C 58.859375 194.832031 59.019531 197.203125 59.25 199.570312 C 59.480469 201.933594 59.777344 204.292969 60.140625 206.640625 C 60.503906 208.992188 60.933594 211.328125 61.429688 213.652344 C 61.925781 215.976562 62.484375 218.285156 63.113281 220.578125 L 35.660156 218.546875 C 35.296875 218.519531 34.929688 218.527344 34.566406 218.574219 C 34.203125 218.621094 33.84375 218.699219 33.496094 218.816406 C 33.148438 218.933594 32.816406 219.082031 32.496094 219.261719 C 32.175781 219.445312 31.878906 219.65625 31.601562 219.898438 C 31.324219 220.136719 31.074219 220.402344 30.851562 220.695312 C 30.625 220.984375 30.429688 221.292969 30.269531 221.621094 C 30.105469 221.953125 29.976562 222.292969 29.878906 222.648438 C 29.78125 223.003906 29.722656 223.363281 29.699219 223.730469 L 28.359375 238.109375 C 27.375 235.078125 26.480469 232.019531 25.675781 228.933594 C 24.867188 225.847656 24.152344 222.742188 23.53125 219.613281 C 22.90625 216.488281 22.375 213.34375 21.933594 210.1875 C 21.492188 207.03125 21.144531 203.863281 20.890625 200.683594 C 20.632812 197.503906 20.472656 194.320312 20.402344 191.132812 C 20.335938 187.945312 20.359375 184.757812 20.476562 181.574219 C 20.59375 178.386719 20.804688 175.207031 21.105469 172.03125 C 21.410156 168.859375 21.804688 165.695312 22.292969 162.542969 C 22.78125 159.394531 23.363281 156.257812 24.035156 153.140625 C 24.707031 150.023438 25.46875 146.929688 26.320312 143.859375 C 27.171875 140.785156 28.113281 137.738281 29.144531 134.722656 C 30.175781 131.707031 31.292969 128.71875 32.496094 125.769531 C 33.703125 122.816406 34.992188 119.902344 36.367188 117.023438 C 37.742188 114.148438 39.203125 111.3125 40.742188 108.523438 C 42.285156 105.730469 43.90625 102.988281 45.605469 100.289062 C 47.308594 97.59375 49.085938 94.949219 50.941406 92.355469 C 52.800781 89.765625 54.730469 87.226562 56.734375 84.75 C 58.738281 82.269531 60.8125 79.851562 62.960938 77.492188 C 65.105469 75.132812 67.320312 72.839844 69.597656 70.609375 C 71.878906 68.382812 74.222656 66.222656 76.628906 64.128906 C 79.035156 62.039062 81.5 60.015625 84.023438 58.070312 C 86.550781 56.121094 89.128906 54.25 91.761719 52.453125 C 94.394531 50.65625 97.082031 48.9375 99.816406 47.296875 C 102.550781 45.65625 105.328125 44.097656 108.15625 42.621094 C 110.980469 41.144531 113.847656 39.75 116.753906 38.4375 C 119.660156 37.128906 122.605469 35.90625 125.582031 34.765625 C 128.5625 33.628906 131.570312 32.578125 134.609375 31.617188 C 137.648438 30.65625 140.714844 29.785156 143.808594 29 C 146.898438 28.21875 150.007812 27.527344 153.140625 26.925781 C 156.273438 26.324219 159.417969 25.816406 162.578125 25.398438 C 165.742188 24.984375 168.910156 24.660156 172.089844 24.429688 C 175.273438 24.195312 178.457031 24.058594 181.644531 24.011719 Z M 181.617188 23.902344 " fill-opacity="1" fill-rule="nonzero"/></g><g clip-path="url(#5eff24f341)"><path fill="#6ab55e" d="M 239.910156 128.921875 L 215.246094 128.921875 C 211.84375 128.921875 209.082031 131.6875 209.082031 135.089844 L 209.082031 141.253906 L 199.832031 141.253906 C 198.128906 141.253906 196.75 142.636719 196.75 144.339844 L 196.75 162.835938 C 196.75 164.539062 198.128906 165.917969 199.832031 165.917969 C 201.535156 165.917969 202.914062 164.539062 202.914062 162.835938 L 202.914062 147.421875 L 209.082031 147.421875 L 209.082031 156.671875 C 209.082031 160.070312 211.84375 162.835938 215.246094 162.835938 L 239.910156 162.835938 C 243.308594 162.835938 246.074219 160.070312 246.074219 156.671875 L 246.074219 135.089844 C 246.074219 131.6875 243.308594 128.921875 239.910156 128.921875 Z M 215.246094 156.671875 L 215.246094 135.089844 L 239.910156 135.089844 L 239.914062 156.671875 Z M 215.246094 156.671875 " fill-opacity="1" fill-rule="nonzero"/></g><path fill="#6ab55e" d="M 230.023438 140.617188 L 226.035156 144.601562 L 225.132812 143.699219 C 223.929688 142.496094 221.976562 142.496094 220.773438 143.699219 C 219.570312 144.902344 219.570312 146.855469 220.773438 148.058594 L 223.855469 151.140625 C 224.457031 151.746094 225.246094 152.046875 226.035156 152.046875 C 226.824219 152.046875 227.613281 151.746094 228.214844 151.140625 L 234.382812 144.976562 C 235.585938 143.773438 235.585938 141.820312 234.382812 140.617188 C 233.179688 139.414062 231.226562 139.414062 230.023438 140.617188 Z M 230.023438 140.617188 " fill-opacity="1" fill-rule="nonzero"/><g clip-path="url(#5573c57389)"><path fill="#6ab55e" d="M 239.910156 170.542969 L 215.246094 170.542969 C 211.84375 170.542969 209.082031 173.308594 209.082031 176.710938 L 209.082031 184.417969 L 202.914062 184.417969 L 202.914062 175.167969 C 202.914062 173.464844 201.535156 172.085938 199.832031 172.085938 C 198.128906 172.085938 196.75 173.464844 196.75 175.167969 L 196.75 184.417969 L 190.582031 184.417969 L 190.582031 147.421875 C 190.582031 144.019531 187.816406 141.253906 184.417969 141.253906 L 150.503906 141.253906 C 149.605469 141.253906 148.75 141.648438 148.164062 142.332031 L 129.664062 163.914062 C 129.1875 164.46875 128.921875 165.183594 128.921875 165.917969 L 128.921875 181.332031 C 128.921875 183.035156 130.304688 184.417969 132.007812 184.417969 C 133.707031 184.417969 135.089844 183.035156 135.089844 181.332031 L 135.089844 169 L 150.503906 169 C 152.207031 169 153.585938 167.621094 153.585938 165.917969 L 153.585938 147.421875 L 184.417969 147.421875 L 184.417969 227.578125 L 135.089844 227.578125 L 135.089844 193.664062 C 135.089844 191.960938 133.707031 190.582031 132.007812 190.582031 C 130.304688 190.582031 128.921875 191.960938 128.921875 193.664062 L 128.921875 227.578125 C 128.921875 230.980469 131.6875 233.742188 135.089844 233.742188 L 184.417969 233.742188 C 187.816406 233.742188 190.582031 230.980469 190.582031 227.578125 L 190.582031 190.582031 L 196.75 190.582031 L 196.75 230.660156 C 196.75 232.363281 198.128906 233.742188 199.832031 233.742188 L 209.082031 233.742188 L 209.082031 239.910156 C 209.082031 243.308594 211.84375 246.074219 215.246094 246.074219 L 239.910156 246.074219 C 243.308594 246.074219 246.074219 243.308594 246.074219 239.910156 L 246.074219 218.328125 C 246.074219 214.929688 243.308594 212.164062 239.910156 212.164062 L 215.246094 212.164062 C 211.84375 212.164062 209.082031 214.929688 209.082031 218.328125 L 209.082031 227.578125 L 202.914062 227.578125 L 202.914062 190.582031 L 209.082031 190.582031 L 209.082031 198.289062 C 209.082031 201.691406 211.84375 204.457031 215.246094 204.457031 L 239.910156 204.457031 C 243.308594 204.457031 246.074219 201.691406 246.074219 198.289062 L 246.074219 176.710938 C 246.074219 173.308594 243.308594 170.542969 239.910156 170.542969 Z M 138.710938 162.835938 L 147.421875 152.671875 L 147.421875 162.835938 Z M 215.246094 218.328125 L 239.910156 218.328125 L 239.914062 239.910156 L 215.246094 239.910156 Z M 215.246094 198.289062 L 215.246094 176.710938 L 239.910156 176.710938 L 239.914062 198.289062 Z M 215.246094 198.289062 " fill-opacity="1" fill-rule="nonzero"/></g><path fill="#6ab55e" d="M 230.023438 182.238281 L 226.035156 186.222656 L 225.132812 185.320312 C 223.929688 184.117188 221.976562 184.117188 220.773438 185.320312 C 219.570312 186.523438 219.570312 188.476562 220.773438 189.679688 L 223.855469 192.761719 C 224.457031 193.363281 225.246094 193.664062 226.035156 193.664062 C 226.824219 193.664062 227.613281 193.363281 228.214844 192.761719 L 234.382812 186.597656 C 235.585938 185.390625 235.585938 183.441406 234.382812 182.238281 C 233.179688 181.03125 231.226562 181.03125 230.023438 182.238281 Z M 230.023438 182.238281 " fill-opacity="1" fill-rule="nonzero"/><path fill="#6ab55e" d="M 223.855469 234.382812 C 224.457031 234.984375 225.246094 235.285156 226.035156 235.285156 C 226.824219 235.285156 227.613281 234.984375 228.214844 234.382812 L 234.382812 228.214844 C 235.585938 227.011719 235.585938 225.0625 234.382812 223.855469 C 233.179688 222.652344 231.226562 222.652344 230.023438 223.855469 L 226.035156 227.84375 L 225.132812 226.941406 C 223.929688 225.734375 221.976562 225.734375 220.773438 226.941406 C 219.570312 228.144531 219.570312 230.09375 220.773438 231.300781 Z M 223.855469 234.382812 " fill-opacity="1" fill-rule="nonzero"/><path fill="#6ab55e" d="M 141.253906 181.332031 C 141.253906 183.035156 142.636719 184.417969 144.339844 184.417969 L 175.167969 184.417969 C 176.871094 184.417969 178.25 183.035156 178.25 181.332031 C 178.25 179.632812 176.871094 178.25 175.167969 178.25 L 144.339844 178.25 C 142.636719 178.25 141.253906 179.632812 141.253906 181.332031 Z M 141.253906 181.332031 " fill-opacity="1" fill-rule="nonzero"/><path fill="#6ab55e" d="M 144.339844 196.75 L 175.167969 196.75 C 176.871094 196.75 178.25 195.367188 178.25 193.664062 C 178.25 191.960938 176.871094 190.582031 175.167969 190.582031 L 144.339844 190.582031 C 142.636719 190.582031 141.253906 191.960938 141.253906 193.664062 C 141.253906 195.367188 142.636719 196.75 144.339844 196.75 Z M 144.339844 196.75 " fill-opacity="1" fill-rule="nonzero"/><path fill="#6ab55e" d="M 144.339844 209.082031 L 175.167969 209.082031 C 176.871094 209.082031 178.25 207.699219 178.25 205.996094 C 178.25 204.292969 176.871094 202.914062 175.167969 202.914062 L 144.339844 202.914062 C 142.636719 202.914062 141.253906 204.292969 141.253906 205.996094 C 141.253906 207.699219 142.636719 209.082031 144.339844 209.082031 Z M 144.339844 209.082031 " fill-opacity="1" fill-rule="nonzero"/><path fill="#6ab55e" d="M 144.339844 221.410156 L 175.167969 221.410156 C 176.871094 221.410156 178.25 220.03125 178.25 218.328125 C 178.25 216.625 176.871094 215.246094 175.167969 215.246094 L 144.339844 215.246094 C 142.636719 215.246094 141.253906 216.625 141.253906 218.328125 C 141.253906 220.03125 142.636719 221.410156 144.339844 221.410156 Z M 144.339844 221.410156 " fill-opacity="1" fill-rule="nonzero"/><path fill="#6ab55e" d="M 162.835938 159.753906 L 175.167969 159.753906 C 176.871094 159.753906 178.25 158.371094 178.25 156.671875 C 178.25 154.96875 176.871094 153.585938 175.167969 153.585938 L 162.835938 153.585938 C 161.132812 153.585938 159.753906 154.96875 159.753906 156.671875 C 159.753906 158.371094 161.132812 159.753906 162.835938 159.753906 Z M 162.835938 159.753906 " fill-opacity="1" fill-rule="nonzero"/><path fill="#6ab55e" d="M 162.835938 172.085938 L 175.167969 172.085938 C 176.871094 172.085938 178.25 170.703125 178.25 169 C 178.25 167.300781 176.871094 165.917969 175.167969 165.917969 L 162.835938 165.917969 C 161.132812 165.917969 159.753906 167.300781 159.753906 169 C 159.753906 170.703125 161.132812 172.085938 162.835938 172.085938 Z M 162.835938 172.085938 " fill-opacity="1" fill-rule="nonzero"/></svg>