<?xml version="1.0" encoding="UTF-8" standalone="no" ?>
<!DOCTYPE svg PUBLIC "-//W3C//DTD SVG 1.1//EN" "http://www.w3.org/Graphics/SVG/1.1/DTD/svg11.dtd">
<svg xmlns="http://www.w3.org/2000/svg" xmlns:xlink="http://www.w3.org/1999/xlink" version="1.1" width="1080" height="1080" viewBox="0 0 1080 1080" xml:space="preserve">
<desc>Created with Fabric.js 5.2.4</desc>
<defs>
</defs>
<g transform="matrix(1 0 0 1 540 540)" id="2a0c5cef-5d78-44a5-90af-729678bbaaea"  >
<rect style="stroke: none; stroke-width: 1; stroke-dasharray: none; stroke-linecap: butt; stroke-dashoffset: 0; stroke-linejoin: miter; stroke-miterlimit: 4; fill: rgb(255,255,255); fill-rule: nonzero; opacity: 1; visibility: hidden;" vector-effect="non-scaling-stroke"  x="-540" y="-540" rx="0" ry="0" width="1080" height="1080" />
</g>
<g transform="matrix(1 0 0 1 540 540)" id="5db5491c-4755-4ed0-a747-6dd1720f6b58"  >
</g>
<g transform="matrix(24 0 0 24 540 540)"  >
<path style="stroke: none; stroke-width: 1; stroke-dasharray: none; stroke-linecap: butt; stroke-dashoffset: 0; stroke-linejoin: miter; stroke-miterlimit: 4; fill: rgb(221,161,12); fill-rule: nonzero; opacity: 1;"  transform=" translate(-22.5, -18)" d="M 44.0625 15.5 C 44.3229 15.5 44.5312 15.4219 44.6875 15.2656 C 44.8958 15.0573 45 14.8229 45 14.5625 L 45 8.9375 C 45 8.67708 44.8958 8.46875 44.6875 8.3125 C 44.5312 8.10417 44.3229 8 44.0625 8 L 38.4375 8 C 38.1771 8 37.9427 8.10417 37.7344 8.3125 C 37.5781 8.46875 37.5 8.67708 37.5 8.9375 L 37.5 10.5 L 30 10.5 L 30 8 L 31.5625 8 C 31.8229 8 32.0312 7.92188 32.1875 7.76562 C 32.3958 7.55729 32.5 7.32292 32.5 7.0625 L 32.5 1.4375 C 32.5 1.17708 32.3958 0.96875 32.1875 0.8125 C 32.0312 0.604167 31.8229 0.5 31.5625 0.5 L 25.9375 0.5 C 25.6771 0.5 25.4427 0.604167 25.2344 0.8125 C 25.0781 0.96875 25 1.17708 25 1.4375 L 25 3 L 7.5 3 L 7.5 1.4375 C 7.5 1.17708 7.39583 0.96875 7.1875 0.8125 C 7.03125 0.604167 6.82292 0.5 6.5625 0.5 L 0.9375 0.5 C 0.677083 0.5 0.442708 0.604167 0.234375 0.8125 C 0.078125 0.96875 0 1.17708 0 1.4375 L 0 7.0625 C 0 7.32292 0.078125 7.55729 0.234375 7.76562 C 0.442708 7.92188 0.677083 8 0.9375 8 L 2.5 8 L 2.5 20.5 L 0.9375 20.5 C 0.677083 20.5 0.442708 20.6042 0.234375 20.8125 C 0.078125 20.9688 0 21.1771 0 21.4375 L 0 27.0625 C 0 27.3229 0.078125 27.5573 0.234375 27.7656 C 0.442708 27.9219 0.677083 28 0.9375 28 L 6.5625 28 C 6.82292 28 7.03125 27.9219 7.1875 27.7656 C 7.39583 27.5573 7.5 27.3229 7.5 27.0625 L 7.5 25.5 L 15 25.5 L 15 28 L 13.4375 28 C 13.1771 28 12.9427 28.1042 12.7344 28.3125 C 12.5781 28.4688 12.5 28.6771 12.5 28.9375 L 12.5 34.5625 C 12.5 34.8229 12.5781 35.0312 12.7344 35.1875 C 12.9427 35.3958 13.1771 35.5 13.4375 35.5 L 19.0625 35.5 C 19.3229 35.5 19.5312 35.3958 19.6875 35.1875 C 19.8958 35.0312 20 34.8229 20 34.5625 L 20 33 L 37.5 33 L 37.5 34.5625 C 37.5 34.8229 37.5781 35.0312 37.7344 35.1875 C 37.9427 35.3958 38.1771 35.5 38.4375 35.5 L 44.0625 35.5 C 44.3229 35.5 44.5312 35.3958 44.6875 35.1875 C 44.8958 35.0312 45 34.8229 45 34.5625 L 45 28.9375 C 45 28.6771 44.8958 28.4688 44.6875 28.3125 C 44.5312 28.1042 44.3229 28 44.0625 28 L 42.5 28 L 42.5 15.5 L 44.0625 15.5 Z M 30 23 L 30 25.5 L 27.5 25.5 L 27.5 23 L 30 23 Z M 27.5 3 L 30 3 L 30 5.5 L 27.5 5.5 L 27.5 3 Z M 2.5 3 L 5 3 L 5 5.5 L 2.5 5.5 L 2.5 3 Z M 5 25.5 L 2.5 25.5 L 2.5 23 L 5 23 L 5 25.5 Z M 6.5625 20.5 L 5 20.5 L 5 8 L 6.5625 8 C 6.82292 8 7.03125 7.92188 7.1875 7.76562 C 7.39583 7.55729 7.5 7.32292 7.5 7.0625 L 7.5 5.5 L 25 5.5 L 25 7.0625 C 25 7.32292 25.0781 7.55729 25.2344 7.76562 C 25.4427 7.92188 25.6771 8 25.9375 8 L 27.5 8 L 27.5 20.5 L 25.9375 20.5 C 25.6771 20.5 25.4427 20.6042 25.2344 20.8125 C 25.0781 20.9688 25 21.1771 25 21.4375 L 25 23 L 7.5 23 L 7.5 21.4375 C 7.5 21.1771 7.39583 20.9688 7.1875 20.8125 C 7.03125 20.6042 6.82292 20.5 6.5625 20.5 Z M 17.5 33 L 15 33 L 15 30.5 L 17.5 30.5 L 17.5 33 Z M 37.5 28.9375 L 37.5 30.5 L 20 30.5 L 20 28.9375 C 20 28.6771 19.8958 28.4688 19.6875 28.3125 C 19.5312 28.1042 19.3229 28 19.0625 28 L 17.5 28 L 17.5 25.5 L 25 25.5 L 25 27.0625 C 25 27.3229 25.0781 27.5573 25.2344 27.7656 C 25.4427 27.9219 25.6771 28 25.9375 28 L 31.5625 28 C 31.8229 28 32.0312 27.9219 32.1875 27.7656 C 32.3958 27.5573 32.5 27.3229 32.5 27.0625 L 32.5 21.4375 C 32.5 21.1771 32.3958 20.9688 32.1875 20.8125 C 32.0312 20.6042 31.8229 20.5 31.5625 20.5 L 30 20.5 L 30 13 L 37.5 13 L 37.5 14.5625 C 37.5 14.8229 37.5781 15.0573 37.7344 15.2656 C 37.9427 15.4219 38.1771 15.5 38.4375 15.5 L 40 15.5 L 40 28 L 38.4375 28 C 38.1771 28 37.9427 28.1042 37.7344 28.3125 C 37.5781 28.4688 37.5 28.6771 37.5 28.9375 Z M 42.5 33 L 40 33 L 40 30.5 L 42.5 30.5 L 42.5 33 Z M 40 13 L 40 10.5 L 42.5 10.5 L 42.5 13 L 40 13 Z" stroke-linecap="round" />
</g>
</svg>