<svg xmlns="http://www.w3.org/2000/svg" xmlns:xlink="http://www.w3.org/1999/xlink" width="500" zoomAndPan="magnify" viewBox="0 0 375 374.999991" height="500" preserveAspectRatio="xMidYMid meet" version="1.0"><defs><clipPath id="cbbebb413e"><path d="M 10.730469 16.835938 L 363.980469 16.835938 L 363.980469 358.085938 L 10.730469 358.085938 Z M 10.730469 16.835938 " clip-rule="nonzero"/></clipPath></defs><path fill="#0097B2" d="M 35.121094 41.21875 L 47.3125 41.21875 L 47.3125 53.40625 L 35.121094 53.40625 Z M 35.121094 41.21875 " fill-opacity="1" fill-rule="nonzero"/><path fill="#0097B2" d="M 59.5 41.21875 L 71.691406 41.21875 L 71.691406 53.40625 L 59.5 53.40625 Z M 59.5 41.21875 " fill-opacity="1" fill-rule="nonzero"/><path fill="#0097B2" d="M 83.882812 41.21875 L 96.070312 41.21875 L 96.070312 53.40625 L 83.882812 53.40625 Z M 83.882812 41.21875 " fill-opacity="1" fill-rule="nonzero"/><g clip-path="url(#cbbebb413e)"><path fill="#0097B2" d="M 339.871094 16.835938 L 35.121094 16.835938 C 34.324219 16.839844 33.527344 16.878906 32.734375 16.957031 C 31.9375 17.035156 31.148438 17.152344 30.367188 17.308594 C 29.585938 17.46875 28.8125 17.660156 28.046875 17.894531 C 27.285156 18.125 26.53125 18.394531 25.796875 18.699219 C 25.058594 19.007812 24.339844 19.347656 23.632812 19.722656 C 22.929688 20.101562 22.246094 20.511719 21.582031 20.953125 C 20.917969 21.398438 20.277344 21.875 19.664062 22.378906 C 19.046875 22.886719 18.453125 23.421875 17.890625 23.984375 C 17.324219 24.550781 16.789062 25.140625 16.285156 25.757812 C 15.777344 26.375 15.300781 27.015625 14.859375 27.679688 C 14.414062 28.34375 14.003906 29.027344 13.628906 29.730469 C 13.25 30.433594 12.910156 31.15625 12.605469 31.890625 C 12.296875 32.628906 12.03125 33.378906 11.796875 34.144531 C 11.566406 34.90625 11.371094 35.679688 11.214844 36.464844 C 11.058594 37.246094 10.941406 38.035156 10.859375 38.828125 C 10.78125 39.621094 10.742188 40.417969 10.742188 41.21875 L 10.742188 285.019531 C 10.742188 285.816406 10.78125 286.613281 10.859375 287.40625 C 10.941406 288.199219 11.058594 288.988281 11.214844 289.773438 C 11.371094 290.554688 11.566406 291.328125 11.796875 292.089844 C 12.03125 292.855469 12.296875 293.605469 12.605469 294.34375 C 12.910156 295.082031 13.25 295.800781 13.628906 296.503906 C 14.003906 297.207031 14.414062 297.890625 14.859375 298.554688 C 15.300781 299.21875 15.777344 299.859375 16.285156 300.476562 C 16.789062 301.09375 17.324219 301.683594 17.890625 302.25 C 18.453125 302.8125 19.046875 303.347656 19.664062 303.855469 C 20.277344 304.363281 20.917969 304.835938 21.582031 305.28125 C 22.246094 305.722656 22.929688 306.132812 23.632812 306.511719 C 24.339844 306.886719 25.058594 307.230469 25.796875 307.535156 C 26.53125 307.839844 27.285156 308.109375 28.046875 308.339844 C 28.8125 308.574219 29.585938 308.769531 30.367188 308.925781 C 31.148438 309.082031 31.9375 309.199219 32.734375 309.277344 C 33.527344 309.355469 34.324219 309.398438 35.121094 309.398438 L 142.589844 309.398438 L 139.265625 345.96875 L 120.453125 345.96875 L 120.453125 358.15625 L 254.542969 358.15625 L 254.542969 345.96875 L 235.726562 345.96875 L 232.402344 309.398438 L 339.871094 309.398438 C 340.667969 309.398438 341.464844 309.355469 342.261719 309.277344 C 343.054688 309.199219 343.84375 309.082031 344.625 308.925781 C 345.410156 308.769531 346.183594 308.574219 346.945312 308.339844 C 347.710938 308.109375 348.460938 307.839844 349.195312 307.535156 C 349.933594 307.230469 350.65625 306.886719 351.359375 306.511719 C 352.0625 306.132812 352.746094 305.722656 353.410156 305.28125 C 354.074219 304.835938 354.714844 304.363281 355.332031 303.855469 C 355.949219 303.347656 356.539062 302.8125 357.101562 302.25 C 357.667969 301.683594 358.203125 301.09375 358.710938 300.476562 C 359.214844 299.859375 359.691406 299.21875 360.132812 298.554688 C 360.578125 297.890625 360.988281 297.207031 361.363281 296.503906 C 361.742188 295.800781 362.082031 295.082031 362.386719 294.34375 C 362.695312 293.605469 362.964844 292.855469 363.195312 292.089844 C 363.429688 291.328125 363.621094 290.554688 363.777344 289.773438 C 363.933594 288.988281 364.054688 288.199219 364.132812 287.40625 C 364.210938 286.613281 364.25 285.816406 364.25 285.019531 L 364.25 41.21875 C 364.25 40.417969 364.210938 39.621094 364.132812 38.828125 C 364.054688 38.035156 363.933594 37.246094 363.777344 36.464844 C 363.621094 35.679688 363.429688 34.90625 363.195312 34.144531 C 362.964844 33.378906 362.695312 32.628906 362.386719 31.890625 C 362.082031 31.15625 361.742188 30.433594 361.363281 29.730469 C 360.988281 29.027344 360.578125 28.34375 360.132812 27.679688 C 359.691406 27.015625 359.214844 26.375 358.710938 25.757812 C 358.203125 25.140625 357.667969 24.550781 357.101562 23.984375 C 356.539062 23.421875 355.949219 22.886719 355.332031 22.378906 C 354.714844 21.875 354.074219 21.398438 353.410156 20.953125 C 352.746094 20.511719 352.0625 20.101562 351.359375 19.722656 C 350.65625 19.347656 349.933594 19.007812 349.195312 18.699219 C 348.460938 18.394531 347.710938 18.125 346.945312 17.894531 C 346.183594 17.660156 345.410156 17.46875 344.625 17.308594 C 343.84375 17.152344 343.054688 17.035156 342.261719 16.957031 C 341.464844 16.878906 340.667969 16.839844 339.871094 16.835938 Z M 35.121094 29.027344 L 339.871094 29.027344 C 340.671875 29.027344 341.464844 29.105469 342.25 29.265625 C 343.035156 29.421875 343.796875 29.652344 344.535156 29.960938 C 345.273438 30.265625 345.976562 30.640625 346.640625 31.085938 C 347.304688 31.53125 347.921875 32.035156 348.488281 32.601562 C 349.054688 33.167969 349.558594 33.785156 350.003906 34.449219 C 350.449219 35.113281 350.824219 35.816406 351.128906 36.554688 C 351.4375 37.292969 351.667969 38.054688 351.824219 38.839844 C 351.980469 39.625 352.0625 40.417969 352.0625 41.21875 L 352.0625 65.597656 L 22.929688 65.597656 L 22.929688 41.21875 C 22.933594 40.417969 23.011719 39.625 23.167969 38.839844 C 23.324219 38.054688 23.554688 37.292969 23.863281 36.554688 C 24.167969 35.816406 24.546875 35.113281 24.988281 34.449219 C 25.433594 33.785156 25.941406 33.167969 26.507812 32.601562 C 27.070312 32.035156 27.6875 31.53125 28.351562 31.085938 C 29.015625 30.640625 29.71875 30.265625 30.457031 29.960938 C 31.199219 29.652344 31.960938 29.421875 32.746094 29.265625 C 33.527344 29.105469 34.320312 29.027344 35.121094 29.027344 Z M 352.0625 77.789062 L 352.0625 248.449219 L 22.929688 248.449219 L 22.929688 77.789062 Z M 223.488281 345.96875 L 151.503906 345.96875 L 154.832031 309.398438 L 220.164062 309.398438 Z M 339.871094 297.207031 L 35.121094 297.207031 C 34.320312 297.207031 33.527344 297.128906 32.746094 296.972656 C 31.960938 296.8125 31.199219 296.582031 30.457031 296.277344 C 29.71875 295.96875 29.015625 295.59375 28.351562 295.148438 C 27.6875 294.703125 27.070312 294.199219 26.507812 293.632812 C 25.941406 293.066406 25.433594 292.453125 24.988281 291.785156 C 24.546875 291.121094 24.167969 290.417969 23.863281 289.679688 C 23.554688 288.941406 23.324219 288.179688 23.167969 287.394531 C 23.011719 286.609375 22.933594 285.816406 22.929688 285.019531 L 22.929688 260.636719 L 352.0625 260.636719 L 352.0625 285.019531 C 352.0625 285.816406 351.980469 286.609375 351.824219 287.394531 C 351.667969 288.179688 351.4375 288.941406 351.128906 289.679688 C 350.824219 290.417969 350.449219 291.121094 350.003906 291.785156 C 349.558594 292.453125 349.054688 293.066406 348.488281 293.632812 C 347.921875 294.199219 347.304688 294.703125 346.640625 295.148438 C 345.976562 295.59375 345.273438 295.96875 344.535156 296.277344 C 343.796875 296.582031 343.035156 296.8125 342.25 296.972656 C 341.464844 297.128906 340.671875 297.207031 339.871094 297.207031 Z M 339.871094 297.207031 " fill-opacity="1" fill-rule="nonzero"/></g><path fill="#0097B2" d="M 181.402344 272.828125 L 193.589844 272.828125 L 193.589844 285.019531 L 181.402344 285.019531 Z M 181.402344 272.828125 " fill-opacity="1" fill-rule="nonzero"/><path fill="#0097B2" d="M 41.214844 144.832031 L 53.40625 144.832031 L 53.40625 157.023438 L 41.214844 157.023438 Z M 41.214844 144.832031 " fill-opacity="1" fill-rule="nonzero"/><path fill="#0097B2" d="M 65.597656 144.832031 L 157.023438 144.832031 L 157.023438 157.023438 L 65.597656 157.023438 Z M 65.597656 144.832031 " fill-opacity="1" fill-rule="nonzero"/><path fill="#0097B2" d="M 41.214844 169.210938 L 53.40625 169.210938 L 53.40625 181.402344 L 41.214844 181.402344 Z M 41.214844 169.210938 " fill-opacity="1" fill-rule="nonzero"/><path fill="#0097B2" d="M 65.597656 169.210938 L 224.066406 169.210938 L 224.066406 181.402344 L 65.597656 181.402344 Z M 65.597656 169.210938 " fill-opacity="1" fill-rule="nonzero"/><path fill="#0097B2" d="M 41.214844 193.59375 L 53.40625 193.59375 L 53.40625 205.78125 L 41.214844 205.78125 Z M 41.214844 193.59375 " fill-opacity="1" fill-rule="nonzero"/><path fill="#0097B2" d="M 65.597656 193.59375 L 181.402344 193.59375 L 181.402344 205.78125 L 65.597656 205.78125 Z M 65.597656 193.59375 " fill-opacity="1" fill-rule="nonzero"/><path fill="#0097B2" d="M 41.214844 217.972656 L 53.40625 217.972656 L 53.40625 230.164062 L 41.214844 230.164062 Z M 41.214844 217.972656 " fill-opacity="1" fill-rule="nonzero"/><path fill="#0097B2" d="M 65.597656 217.972656 L 242.351562 217.972656 L 242.351562 230.164062 L 65.597656 230.164062 Z M 65.597656 217.972656 " fill-opacity="1" fill-rule="nonzero"/><path fill="#0097B2" d="M 43 118.667969 L 55.191406 130.859375 L 63.8125 122.238281 L 55.929688 114.359375 L 63.8125 106.476562 L 55.191406 97.859375 L 43 110.046875 C 42.71875 110.332031 42.464844 110.636719 42.242188 110.972656 C 42.019531 111.304688 41.832031 111.65625 41.679688 112.023438 C 41.527344 112.394531 41.410156 112.777344 41.332031 113.167969 C 41.253906 113.5625 41.214844 113.957031 41.214844 114.359375 C 41.214844 114.757812 41.253906 115.152344 41.332031 115.546875 C 41.410156 115.9375 41.527344 116.320312 41.679688 116.691406 C 41.832031 117.058594 42.019531 117.410156 42.242188 117.742188 C 42.464844 118.078125 42.71875 118.382812 43 118.667969 Z M 43 118.667969 " fill-opacity="1" fill-rule="nonzero"/><path fill="#0097B2" d="M 103.953125 122.238281 L 112.570312 130.859375 L 124.761719 118.667969 C 125.042969 118.382812 125.296875 118.078125 125.519531 117.742188 C 125.742188 117.410156 125.929688 117.058594 126.082031 116.691406 C 126.234375 116.320312 126.351562 115.9375 126.429688 115.546875 C 126.507812 115.152344 126.546875 114.757812 126.546875 114.359375 C 126.546875 113.957031 126.507812 113.5625 126.429688 113.167969 C 126.351562 112.777344 126.234375 112.394531 126.082031 112.023438 C 125.929688 111.65625 125.742188 111.304688 125.519531 110.972656 C 125.296875 110.636719 125.042969 110.332031 124.761719 110.046875 L 112.570312 97.859375 L 103.953125 106.476562 L 111.832031 114.359375 Z M 103.953125 122.238281 " fill-opacity="1" fill-rule="nonzero"/><path fill="#0097B2" d="M 72.003906 130.714844 L 84.195312 94.144531 L 95.757812 98 L 83.566406 134.570312 Z M 72.003906 130.714844 " fill-opacity="1" fill-rule="nonzero"/><path fill="#0097B2" d="M 236.257812 169.210938 L 272.828125 169.210938 L 272.828125 181.402344 L 236.257812 181.402344 Z M 236.257812 169.210938 " fill-opacity="1" fill-rule="nonzero"/><path fill="#0097B2" d="M 254.542969 217.972656 L 266.730469 217.972656 L 266.730469 230.164062 L 254.542969 230.164062 Z M 254.542969 217.972656 " fill-opacity="1" fill-rule="nonzero"/><path fill="#0097B2" d="M 278.921875 217.972656 L 291.113281 217.972656 L 291.113281 230.164062 L 278.921875 230.164062 Z M 278.921875 217.972656 " fill-opacity="1" fill-rule="nonzero"/><path fill="#0097B2" d="M 169.210938 144.832031 L 181.402344 144.832031 L 181.402344 157.023438 L 169.210938 157.023438 Z M 169.210938 144.832031 " fill-opacity="1" fill-rule="nonzero"/></svg>