<svg xmlns="http://www.w3.org/2000/svg" xmlns:xlink="http://www.w3.org/1999/xlink" width="500" zoomAndPan="magnify" viewBox="0 0 375 374.999991" height="500" preserveAspectRatio="xMidYMid meet" version="1.0"><defs><clipPath id="8d8e3cbdf2"><path d="M 0 12.953125 L 375 12.953125 L 375 375 L 0 375 Z M 0 12.953125 " clip-rule="nonzero"/></clipPath></defs><path fill="#171716" d="M 25.875 38.816406 L 38.804688 38.816406 L 38.804688 51.746094 L 25.875 51.746094 Z M 25.875 38.816406 " fill-opacity="1" fill-rule="nonzero"/><path fill="#171716" d="M 51.734375 38.816406 L 64.664062 38.816406 L 64.664062 51.746094 L 51.734375 51.746094 Z M 51.734375 38.816406 " fill-opacity="1" fill-rule="nonzero"/><path fill="#171716" d="M 77.59375 38.816406 L 90.523438 38.816406 L 90.523438 51.746094 L 77.59375 51.746094 Z M 77.59375 38.816406 " fill-opacity="1" fill-rule="nonzero"/><g clip-path="url(#8d8e3cbdf2)"><path fill="#171716" d="M 349.125 12.953125 L 25.875 12.953125 C 25.027344 12.957031 24.183594 12.996094 23.339844 13.082031 C 22.5 13.164062 21.664062 13.289062 20.832031 13.457031 C 20.003906 13.621094 19.183594 13.828125 18.371094 14.074219 C 17.5625 14.320312 16.765625 14.605469 15.984375 14.929688 C 15.203125 15.253906 14.4375 15.617188 13.691406 16.015625 C 12.945312 16.417969 12.21875 16.851562 11.515625 17.320312 C 10.8125 17.792969 10.132812 18.296875 9.476562 18.832031 C 8.824219 19.371094 8.195312 19.9375 7.597656 20.539062 C 7 21.136719 6.429688 21.761719 5.894531 22.417969 C 5.355469 23.070312 4.851562 23.75 4.382812 24.453125 C 3.910156 25.15625 3.476562 25.882812 3.078125 26.628906 C 2.679688 27.375 2.316406 28.140625 1.992188 28.921875 C 1.667969 29.703125 1.382812 30.5 1.136719 31.3125 C 0.890625 32.121094 0.683594 32.941406 0.515625 33.769531 C 0.351562 34.601562 0.226562 35.4375 0.144531 36.28125 C 0.0585938 37.125 0.015625 37.96875 0.015625 38.816406 L 0.015625 297.414062 C 0.015625 298.261719 0.0585938 299.105469 0.144531 299.949219 C 0.226562 300.789062 0.351562 301.625 0.515625 302.457031 C 0.683594 303.285156 0.890625 304.105469 1.136719 304.917969 C 1.382812 305.726562 1.667969 306.523438 1.992188 307.304688 C 2.316406 308.085938 2.679688 308.851562 3.078125 309.597656 C 3.476562 310.34375 3.910156 311.070312 4.382812 311.773438 C 4.851562 312.476562 5.355469 313.15625 5.894531 313.8125 C 6.429688 314.464844 7 315.09375 7.597656 315.691406 C 8.195312 316.289062 8.824219 316.859375 9.476562 317.394531 C 10.132812 317.933594 10.8125 318.4375 11.515625 318.90625 C 12.21875 319.378906 12.945312 319.8125 13.691406 320.210938 C 14.4375 320.609375 15.203125 320.972656 15.984375 321.296875 C 16.765625 321.621094 17.5625 321.90625 18.371094 322.152344 C 19.183594 322.398438 20.003906 322.605469 20.832031 322.773438 C 21.664062 322.9375 22.5 323.0625 23.339844 323.148438 C 24.183594 323.230469 25.027344 323.273438 25.875 323.273438 L 139.867188 323.273438 L 136.339844 362.0625 L 116.386719 362.0625 L 116.386719 374.992188 L 258.613281 374.992188 L 258.613281 362.0625 L 238.660156 362.0625 L 235.132812 323.273438 L 349.125 323.273438 C 349.972656 323.273438 350.816406 323.230469 351.660156 323.148438 C 352.5 323.0625 353.335938 322.9375 354.167969 322.773438 C 354.996094 322.605469 355.816406 322.398438 356.628906 322.152344 C 357.4375 321.90625 358.234375 321.621094 359.015625 321.296875 C 359.796875 320.972656 360.5625 320.609375 361.308594 320.210938 C 362.054688 319.8125 362.78125 319.378906 363.484375 318.90625 C 364.1875 318.4375 364.867188 317.933594 365.523438 317.394531 C 366.175781 316.859375 366.804688 316.289062 367.402344 315.691406 C 368 315.09375 368.570312 314.464844 369.105469 313.8125 C 369.644531 313.15625 370.148438 312.476562 370.617188 311.773438 C 371.089844 311.070312 371.523438 310.34375 371.921875 309.597656 C 372.320312 308.851562 372.683594 308.085938 373.007812 307.304688 C 373.332031 306.523438 373.617188 305.726562 373.863281 304.917969 C 374.109375 304.105469 374.316406 303.285156 374.484375 302.457031 C 374.648438 301.625 374.773438 300.789062 374.855469 299.949219 C 374.941406 299.105469 374.984375 298.261719 374.984375 297.414062 L 374.984375 38.816406 C 374.984375 37.96875 374.941406 37.125 374.855469 36.28125 C 374.773438 35.4375 374.648438 34.601562 374.484375 33.769531 C 374.316406 32.941406 374.109375 32.121094 373.863281 31.3125 C 373.617188 30.5 373.332031 29.703125 373.007812 28.921875 C 372.683594 28.140625 372.320312 27.375 371.921875 26.628906 C 371.523438 25.882812 371.089844 25.15625 370.617188 24.453125 C 370.148438 23.75 369.644531 23.070312 369.105469 22.417969 C 368.570312 21.761719 368 21.136719 367.402344 20.539062 C 366.804688 19.9375 366.175781 19.371094 365.523438 18.832031 C 364.867188 18.296875 364.1875 17.792969 363.484375 17.320312 C 362.78125 16.851562 362.054688 16.417969 361.308594 16.015625 C 360.5625 15.617188 359.796875 15.253906 359.015625 14.929688 C 358.234375 14.605469 357.4375 14.320312 356.628906 14.074219 C 355.816406 13.828125 354.996094 13.621094 354.167969 13.457031 C 353.335938 13.289062 352.5 13.164062 351.660156 13.082031 C 350.816406 12.996094 349.972656 12.957031 349.125 12.953125 Z M 25.875 25.882812 L 349.125 25.882812 C 349.972656 25.886719 350.8125 25.96875 351.644531 26.136719 C 352.476562 26.300781 353.285156 26.546875 354.070312 26.871094 C 354.855469 27.199219 355.597656 27.597656 356.304688 28.066406 C 357.011719 28.539062 357.664062 29.074219 358.261719 29.675781 C 358.863281 30.277344 359.398438 30.929688 359.871094 31.632812 C 360.34375 32.339844 360.742188 33.085938 361.066406 33.867188 C 361.390625 34.652344 361.636719 35.460938 361.804688 36.292969 C 361.96875 37.125 362.054688 37.964844 362.054688 38.816406 L 362.054688 64.675781 L 12.945312 64.675781 L 12.945312 38.816406 C 12.945312 37.964844 13.03125 37.125 13.195312 36.292969 C 13.363281 35.460938 13.609375 34.652344 13.933594 33.867188 C 14.257812 33.085938 14.65625 32.339844 15.128906 31.632812 C 15.601562 30.929688 16.136719 30.277344 16.738281 29.675781 C 17.335938 29.074219 17.988281 28.539062 18.695312 28.066406 C 19.402344 27.597656 20.144531 27.199219 20.929688 26.871094 C 21.714844 26.546875 22.523438 26.300781 23.355469 26.136719 C 24.1875 25.96875 25.027344 25.886719 25.875 25.882812 Z M 362.054688 77.605469 L 362.054688 258.625 L 12.945312 258.625 L 12.945312 77.605469 Z M 225.675781 362.0625 L 149.324219 362.0625 L 152.851562 323.273438 L 222.148438 323.273438 Z M 349.125 310.34375 L 25.875 310.34375 C 25.027344 310.34375 24.1875 310.257812 23.355469 310.09375 C 22.523438 309.925781 21.714844 309.679688 20.929688 309.355469 C 20.144531 309.03125 19.402344 308.632812 18.695312 308.160156 C 17.988281 307.6875 17.335938 307.152344 16.738281 306.550781 C 16.136719 305.953125 15.601562 305.300781 15.128906 304.59375 C 14.65625 303.886719 14.257812 303.144531 13.933594 302.359375 C 13.609375 301.574219 13.363281 300.765625 13.195312 299.933594 C 13.03125 299.101562 12.945312 298.261719 12.945312 297.414062 L 12.945312 271.554688 L 362.054688 271.554688 L 362.054688 297.414062 C 362.054688 298.261719 361.96875 299.101562 361.804688 299.933594 C 361.636719 300.765625 361.390625 301.574219 361.066406 302.359375 C 360.742188 303.144531 360.34375 303.886719 359.871094 304.59375 C 359.398438 305.300781 358.863281 305.953125 358.261719 306.550781 C 357.664062 307.152344 357.011719 307.6875 356.304688 308.160156 C 355.597656 308.632812 354.855469 309.03125 354.070312 309.355469 C 353.285156 309.679688 352.476562 309.925781 351.644531 310.09375 C 350.8125 310.257812 349.972656 310.34375 349.125 310.34375 Z M 349.125 310.34375 " fill-opacity="1" fill-rule="nonzero"/></g><path fill="#171716" d="M 181.035156 284.484375 L 193.964844 284.484375 L 193.964844 297.414062 L 181.035156 297.414062 Z M 181.035156 284.484375 " fill-opacity="1" fill-rule="nonzero"/><path fill="#171716" d="M 32.339844 148.71875 L 45.269531 148.71875 L 45.269531 161.648438 L 32.339844 161.648438 Z M 32.339844 148.71875 " fill-opacity="1" fill-rule="nonzero"/><path fill="#171716" d="M 58.199219 148.71875 L 155.175781 148.71875 L 155.175781 161.648438 L 58.199219 161.648438 Z M 58.199219 148.71875 " fill-opacity="1" fill-rule="nonzero"/><path fill="#171716" d="M 32.339844 174.578125 L 45.269531 174.578125 L 45.269531 187.507812 L 32.339844 187.507812 Z M 32.339844 174.578125 " fill-opacity="1" fill-rule="nonzero"/><path fill="#171716" d="M 58.199219 174.578125 L 226.289062 174.578125 L 226.289062 187.507812 L 58.199219 187.507812 Z M 58.199219 174.578125 " fill-opacity="1" fill-rule="nonzero"/><path fill="#171716" d="M 32.339844 200.4375 L 45.269531 200.4375 L 45.269531 213.367188 L 32.339844 213.367188 Z M 32.339844 200.4375 " fill-opacity="1" fill-rule="nonzero"/><path fill="#171716" d="M 58.199219 200.4375 L 181.035156 200.4375 L 181.035156 213.367188 L 58.199219 213.367188 Z M 58.199219 200.4375 " fill-opacity="1" fill-rule="nonzero"/><path fill="#171716" d="M 32.339844 226.300781 L 45.269531 226.300781 L 45.269531 239.230469 L 32.339844 239.230469 Z M 32.339844 226.300781 " fill-opacity="1" fill-rule="nonzero"/><path fill="#171716" d="M 58.199219 226.300781 L 245.683594 226.300781 L 245.683594 239.230469 L 58.199219 239.230469 Z M 58.199219 226.300781 " fill-opacity="1" fill-rule="nonzero"/><path fill="#171716" d="M 34.234375 120.964844 L 47.164062 133.894531 L 56.308594 124.753906 L 47.949219 116.394531 L 56.308594 108.035156 L 47.164062 98.894531 L 34.234375 111.824219 C 33.933594 112.121094 33.664062 112.449219 33.429688 112.800781 C 33.195312 113.15625 32.996094 113.527344 32.832031 113.921875 C 32.667969 114.3125 32.546875 114.714844 32.464844 115.132812 C 32.382812 115.550781 32.339844 115.96875 32.339844 116.394531 C 32.339844 116.820312 32.382812 117.238281 32.464844 117.65625 C 32.546875 118.070312 32.667969 118.476562 32.832031 118.867188 C 32.996094 119.261719 33.195312 119.632812 33.429688 119.984375 C 33.664062 120.339844 33.933594 120.664062 34.234375 120.964844 Z M 34.234375 120.964844 " fill-opacity="1" fill-rule="nonzero"/><path fill="#171716" d="M 98.882812 124.753906 L 108.027344 133.894531 L 120.957031 120.964844 C 121.257812 120.664062 121.523438 120.339844 121.761719 119.984375 C 121.996094 119.632812 122.195312 119.261719 122.359375 118.867188 C 122.519531 118.476562 122.644531 118.070312 122.726562 117.65625 C 122.808594 117.238281 122.851562 116.820312 122.851562 116.394531 C 122.851562 115.96875 122.808594 115.550781 122.726562 115.132812 C 122.644531 114.714844 122.519531 114.3125 122.359375 113.921875 C 122.195312 113.527344 121.996094 113.15625 121.761719 112.800781 C 121.523438 112.449219 121.257812 112.121094 120.957031 111.824219 L 108.027344 98.894531 L 98.882812 108.035156 L 107.242188 116.394531 Z M 98.882812 124.753906 " fill-opacity="1" fill-rule="nonzero"/><path fill="#171716" d="M 64.996094 133.742188 L 77.929688 94.957031 L 90.195312 99.042969 L 77.261719 137.832031 Z M 64.996094 133.742188 " fill-opacity="1" fill-rule="nonzero"/><path fill="#171716" d="M 239.21875 174.578125 L 278.007812 174.578125 L 278.007812 187.507812 L 239.21875 187.507812 Z M 239.21875 174.578125 " fill-opacity="1" fill-rule="nonzero"/><path fill="#171716" d="M 258.613281 226.300781 L 271.542969 226.300781 L 271.542969 239.230469 L 258.613281 239.230469 Z M 258.613281 226.300781 " fill-opacity="1" fill-rule="nonzero"/><path fill="#171716" d="M 284.476562 226.300781 L 297.40625 226.300781 L 297.40625 239.230469 L 284.476562 239.230469 Z M 284.476562 226.300781 " fill-opacity="1" fill-rule="nonzero"/><path fill="#171716" d="M 168.105469 148.71875 L 181.035156 148.71875 L 181.035156 161.648438 L 168.105469 161.648438 Z M 168.105469 148.71875 " fill-opacity="1" fill-rule="nonzero"/></svg>