<?xml version="1.0" encoding="UTF-8" standalone="no" ?>
<!DOCTYPE svg PUBLIC "-//W3C//DTD SVG 1.1//EN" "http://www.w3.org/Graphics/SVG/1.1/DTD/svg11.dtd">
<svg xmlns="http://www.w3.org/2000/svg" xmlns:xlink="http://www.w3.org/1999/xlink" version="1.1" width="1080" height="1080" viewBox="0 0 1080 1080" xml:space="preserve">
<desc>Created with Fabric.js 5.2.4</desc>
<defs>
</defs>
<rect x="0" y="0" width="100%" height="100%" fill="transparent"></rect>
<g transform="matrix(1 0 0 1 540 540)" id="a812b113-6bee-432f-9884-ff0b15840f5c"  >
<rect style="stroke: none; stroke-width: 1; stroke-dasharray: none; stroke-linecap: butt; stroke-dashoffset: 0; stroke-linejoin: miter; stroke-miterlimit: 4; fill: rgb(255,255,255); fill-rule: nonzero; opacity: 1; visibility: hidden;" vector-effect="non-scaling-stroke"  x="-540" y="-540" rx="0" ry="0" width="1080" height="1080" />
</g>
<g transform="matrix(1 0 0 1 540 540)" id="cedee7f9-fbcd-4862-a3f0-6d5a90771650"  >
</g>
<g transform="matrix(27 0 0 27 540 540)"  >
<path style="stroke: none; stroke-width: 1; stroke-dasharray: none; stroke-linecap: butt; stroke-dashoffset: 0; stroke-linejoin: miter; stroke-miterlimit: 4; fill: rgb(213,102,255); fill-rule: nonzero; opacity: 1;"  transform=" translate(-20, -20)" d="M 7.5 33.75 C 7.86458 33.75 8.15104 33.6458 8.35938 33.4375 C 8.61979 33.1771 8.75 32.8646 8.75 32.5 C 8.75 32.1354 8.61979 31.849 8.35938 31.6406 C 8.15104 31.3802 7.86458 31.25 7.5 31.25 C 7.13542 31.25 6.82292 31.3802 6.5625 31.6406 C 6.35417 31.849 6.25 32.1354 6.25 32.5 C 6.25 32.8646 6.35417 33.1771 6.5625 33.4375 C 6.82292 33.6458 7.13542 33.75 7.5 33.75 Z M 37.5 25 L 25.625 25 L 33.9844 16.5625 C 34.5052 16.0938 34.7656 15.5208 34.7656 14.8438 C 34.7656 14.1146 34.5052 13.5156 33.9844 13.0469 L 26.9531 6.01562 C 26.4844 5.49479 25.8854 5.23438 25.1562 5.23438 C 24.4792 5.23438 23.9062 5.49479 23.4375 6.01562 L 15 14.375 L 15 2.5 C 15 1.82292 14.7396 1.25 14.2188 0.78125 C 13.75 0.260417 13.1771 0 12.5 0 L 2.5 0 C 1.82292 0 1.22396 0.260417 0.703125 0.78125 C 0.234375 1.25 0 1.82292 0 2.5 L 0 32.5 C 0 34.5833 0.729167 36.3542 2.1875 37.8125 C 3.64583 39.2708 5.41667 40 7.5 40 L 37.5 40 C 38.1771 40 38.75 39.7396 39.2188 39.2188 C 39.7396 38.75 40 38.1771 40 37.5 L 40 27.5 C 40 26.8229 39.7396 26.25 39.2188 25.7812 C 38.75 25.2604 38.1771 25 37.5 25 Z M 12.5 32.5 C 12.5 33.8542 12.0052 35.026 11.0156 36.0156 C 10.026 37.0052 8.85417 37.5 7.5 37.5 C 6.14583 37.5 4.97396 37.0052 3.98438 36.0156 C 2.99479 35.026 2.5 33.8542 2.5 32.5 L 2.5 22.5 L 12.5 22.5 L 12.5 32.5 Z M 12.5 20 L 2.5 20 L 2.5 12.5 L 12.5 12.5 L 12.5 20 Z M 12.5 10 L 2.5 10 L 2.5 2.5 L 12.5 2.5 L 12.5 10 Z M 15 17.8906 L 25.1562 7.73438 L 32.2656 14.8438 L 15 32.1094 L 15 17.8906 Z M 37.5 37.5 L 13.125 37.5 L 23.125 27.5 L 37.5 27.5 L 37.5 37.5 Z" stroke-linecap="round" />
</g>
</svg>