<svg xmlns="http://www.w3.org/2000/svg" xmlns:xlink="http://www.w3.org/1999/xlink" width="500" zoomAndPan="magnify" viewBox="0 0 375 374.999991" height="500" preserveAspectRatio="xMidYMid meet" version="1.0"><defs><clipPath id="5f00605c1b"><path d="M 0 37.5 L 347 37.5 L 347 287 L 0 287 Z M 0 37.5 " clip-rule="nonzero"/></clipPath><clipPath id="0afdb2872e"><path d="M 135 277 L 144 277 L 144 337.382812 L 135 337.382812 Z M 135 277 " clip-rule="nonzero"/></clipPath><clipPath id="31fb46cbf4"><path d="M 202.300781 277 L 212 277 L 212 337.382812 L 202.300781 337.382812 Z M 202.300781 277 " clip-rule="nonzero"/></clipPath><clipPath id="4124914c58"><path d="M 104 328 L 242.761719 328 L 242.761719 337.382812 L 104 337.382812 Z M 104 328 " clip-rule="nonzero"/></clipPath><clipPath id="ee85c037c2"><path d="M 251 123 L 375 123 L 375 337.382812 L 251 337.382812 Z M 251 123 " clip-rule="nonzero"/></clipPath><clipPath id="109bd5e85c"><path d="M 266.121094 136.359375 L 362.871094 136.359375 L 362.871094 151.359375 L 266.121094 151.359375 Z M 266.121094 136.359375 " clip-rule="nonzero"/></clipPath></defs><g clip-path="url(#5f00605c1b)"><path fill="#db6d6d" d="M 255.574219 286.230469 L 12.835938 286.230469 C 5.757812 286.230469 0 280.46875 0 273.390625 L 0 50.429688 C 0 43.359375 5.757812 37.597656 12.835938 37.597656 L 333.933594 37.597656 C 341.007812 37.597656 346.765625 43.359375 346.765625 50.429688 L 346.765625 127.636719 C 346.765625 130.085938 344.785156 132.066406 342.335938 132.066406 C 339.894531 132.066406 337.910156 130.085938 337.910156 127.636719 L 337.910156 50.429688 C 337.910156 48.238281 336.125 46.457031 333.933594 46.457031 L 12.835938 46.457031 C 10.644531 46.457031 8.859375 48.238281 8.859375 50.429688 L 8.859375 273.390625 C 8.859375 275.585938 10.644531 277.367188 12.835938 277.367188 L 255.574219 277.367188 C 258.015625 277.367188 260.003906 279.351562 260.003906 281.796875 C 260.003906 284.242188 258.015625 286.230469 255.574219 286.230469 " fill-opacity="1" fill-rule="nonzero"/></g><path fill="#db6d6d" d="M 172.953125 250.09375 C 177.851562 250.09375 181.820312 254.0625 181.820312 258.96875 C 181.820312 263.867188 177.851562 267.835938 172.953125 267.835938 C 168.046875 267.835938 164.078125 263.867188 164.078125 258.96875 C 164.078125 254.0625 168.046875 250.09375 172.953125 250.09375 " fill-opacity="1" fill-rule="nonzero"/><g clip-path="url(#0afdb2872e)"><path fill="#db6d6d" d="M 139.4375 337.382812 C 136.992188 337.382812 135.007812 335.398438 135.007812 332.953125 L 135.007812 281.796875 C 135.007812 279.347656 136.992188 277.367188 139.4375 277.367188 C 141.886719 277.367188 143.867188 279.347656 143.867188 281.796875 L 143.867188 332.953125 C 143.867188 335.398438 141.886719 337.382812 139.4375 337.382812 " fill-opacity="1" fill-rule="nonzero"/></g><g clip-path="url(#31fb46cbf4)"><path fill="#db6d6d" d="M 207.324219 337.382812 C 204.878906 337.382812 202.894531 335.398438 202.894531 332.953125 L 202.894531 281.796875 C 202.894531 279.347656 204.878906 277.367188 207.324219 277.367188 C 209.769531 277.367188 211.753906 279.347656 211.753906 281.796875 L 211.753906 332.953125 C 211.753906 335.398438 209.769531 337.382812 207.324219 337.382812 " fill-opacity="1" fill-rule="nonzero"/></g><g clip-path="url(#4124914c58)"><path fill="#db6d6d" d="M 237.941406 337.382812 L 108.824219 337.382812 C 106.378906 337.382812 104.394531 335.398438 104.394531 332.953125 C 104.394531 330.503906 106.378906 328.523438 108.824219 328.523438 L 237.941406 328.523438 C 240.386719 328.523438 242.371094 330.503906 242.371094 332.953125 C 242.371094 335.398438 240.386719 337.382812 237.941406 337.382812 " fill-opacity="1" fill-rule="nonzero"/></g><path fill="#db6d6d" d="M 255.574219 240.585938 L 4.429688 240.585938 C 1.980469 240.585938 0 238.605469 0 236.160156 C 0 233.710938 1.980469 231.730469 4.429688 231.730469 L 255.574219 231.730469 C 258.015625 231.730469 260.003906 233.710938 260.003906 236.160156 C 260.003906 238.605469 258.015625 240.585938 255.574219 240.585938 " fill-opacity="1" fill-rule="nonzero"/><path fill="#db6d6d" d="M 312.949219 297.191406 L 313.195312 297.191406 L 313.195312 306.261719 L 312.949219 306.261719 L 312.949219 297.191406 " fill-opacity="1" fill-rule="nonzero"/><path fill="#db6d6d" d="M 37.917969 72.5625 C 36.289062 72.5625 34.964844 73.882812 34.964844 75.515625 L 34.964844 102.386719 C 34.964844 104.015625 36.289062 105.339844 37.917969 105.339844 L 126.894531 105.339844 C 128.519531 105.339844 129.84375 104.015625 129.84375 102.386719 L 129.84375 75.515625 C 129.84375 73.882812 128.519531 72.5625 126.894531 72.5625 Z M 126.894531 114.199219 L 37.917969 114.199219 C 31.402344 114.199219 26.105469 108.898438 26.105469 102.386719 L 26.105469 75.515625 C 26.105469 69 31.402344 63.703125 37.917969 63.703125 L 126.894531 63.703125 C 133.40625 63.703125 138.707031 69 138.707031 75.515625 L 138.707031 102.386719 C 138.707031 108.898438 133.40625 114.199219 126.894531 114.199219 " fill-opacity="1" fill-rule="nonzero"/><path fill="#db6d6d" d="M 37.917969 143.363281 C 36.289062 143.363281 34.964844 144.691406 34.964844 146.316406 L 34.964844 173.1875 C 34.964844 174.820312 36.289062 176.140625 37.917969 176.140625 L 75.023438 176.140625 C 76.648438 176.140625 77.976562 174.820312 77.976562 173.1875 L 77.976562 146.316406 C 77.976562 144.691406 76.648438 143.363281 75.023438 143.363281 Z M 75.023438 185 L 37.917969 185 C 31.402344 185 26.105469 179.703125 26.105469 173.1875 L 26.105469 146.316406 C 26.105469 139.804688 31.402344 134.503906 37.917969 134.503906 L 75.023438 134.503906 C 81.535156 134.503906 86.835938 139.804688 86.835938 146.316406 L 86.835938 173.1875 C 86.835938 179.703125 81.535156 185 75.023438 185 " fill-opacity="1" fill-rule="nonzero"/><path fill="#db6d6d" d="M 108.675781 143.363281 C 107.050781 143.363281 105.722656 144.691406 105.722656 146.316406 L 105.722656 173.1875 C 105.722656 174.820312 107.050781 176.140625 108.675781 176.140625 L 145.78125 176.140625 C 147.410156 176.140625 148.734375 174.820312 148.734375 173.1875 L 148.734375 146.316406 C 148.734375 144.691406 147.410156 143.363281 145.78125 143.363281 Z M 145.78125 185 L 108.675781 185 C 102.164062 185 96.863281 179.703125 96.863281 173.1875 L 96.863281 146.316406 C 96.863281 139.804688 102.164062 134.503906 108.675781 134.503906 L 145.78125 134.503906 C 152.292969 134.503906 157.59375 139.804688 157.59375 146.316406 L 157.59375 173.1875 C 157.59375 179.703125 152.292969 185 145.78125 185 " fill-opacity="1" fill-rule="nonzero"/><path fill="#db6d6d" d="M 179.4375 143.363281 C 177.804688 143.363281 176.484375 144.691406 176.484375 146.316406 L 176.484375 173.1875 C 176.484375 174.820312 177.804688 176.140625 179.4375 176.140625 L 216.542969 176.140625 C 218.167969 176.140625 219.492188 174.820312 219.492188 173.1875 L 219.492188 146.316406 C 219.492188 144.691406 218.167969 143.363281 216.542969 143.363281 Z M 216.542969 185 L 179.4375 185 C 172.921875 185 167.625 179.703125 167.625 173.1875 L 167.625 146.316406 C 167.625 139.804688 172.921875 134.503906 179.4375 134.503906 L 216.542969 134.503906 C 223.054688 134.503906 228.351562 139.804688 228.351562 146.316406 L 228.351562 173.1875 C 228.351562 179.703125 223.054688 185 216.542969 185 " fill-opacity="1" fill-rule="nonzero"/><path fill="#db6d6d" d="M 223.921875 75.414062 L 153.367188 75.414062 C 150.921875 75.414062 148.941406 73.433594 148.941406 70.984375 C 148.941406 68.539062 150.921875 66.554688 153.367188 66.554688 L 223.921875 66.554688 C 226.367188 66.554688 228.351562 68.539062 228.351562 70.984375 C 228.351562 73.433594 226.367188 75.414062 223.921875 75.414062 " fill-opacity="1" fill-rule="nonzero"/><path fill="#db6d6d" d="M 223.921875 93.378906 L 153.367188 93.378906 C 150.921875 93.378906 148.941406 91.394531 148.941406 88.949219 C 148.941406 86.5 150.921875 84.519531 153.367188 84.519531 L 223.921875 84.519531 C 226.367188 84.519531 228.351562 86.5 228.351562 88.949219 C 228.351562 91.394531 226.367188 93.378906 223.921875 93.378906 " fill-opacity="1" fill-rule="nonzero"/><path fill="#db6d6d" d="M 223.921875 111.34375 L 153.367188 111.34375 C 150.921875 111.34375 148.941406 109.359375 148.941406 106.914062 C 148.941406 104.46875 150.921875 102.484375 153.367188 102.484375 L 223.921875 102.484375 C 226.367188 102.484375 228.351562 104.46875 228.351562 106.914062 C 228.351562 109.359375 226.367188 111.34375 223.921875 111.34375 " fill-opacity="1" fill-rule="nonzero"/><path fill="#db6d6d" d="M 370.570312 164.496094 L 255.574219 164.496094 C 253.125 164.496094 251.140625 162.515625 251.140625 160.066406 C 251.140625 157.625 253.125 155.636719 255.574219 155.636719 L 370.570312 155.636719 C 373.015625 155.636719 375 157.625 375 160.066406 C 375 162.515625 373.015625 164.496094 370.570312 164.496094 " fill-opacity="1" fill-rule="nonzero"/><path fill="#db6d6d" d="M 370.570312 304.949219 L 255.574219 304.949219 C 253.125 304.949219 251.140625 302.960938 251.140625 300.519531 C 251.140625 298.070312 253.125 296.089844 255.574219 296.089844 L 370.570312 296.089844 C 373.015625 296.089844 375 298.070312 375 300.519531 C 375 302.960938 373.015625 304.949219 370.570312 304.949219 " fill-opacity="1" fill-rule="nonzero"/><path fill="#db6d6d" d="M 299.640625 189.605469 C 298.011719 189.605469 296.6875 190.933594 296.6875 192.558594 L 296.6875 211.207031 C 296.6875 212.835938 298.011719 214.160156 299.640625 214.160156 L 326.503906 214.160156 C 328.128906 214.160156 329.453125 212.835938 329.453125 211.207031 L 329.453125 192.558594 C 329.453125 190.933594 328.128906 189.605469 326.503906 189.605469 Z M 326.503906 223.015625 L 299.640625 223.015625 C 293.125 223.015625 287.832031 217.71875 287.832031 211.207031 L 287.832031 192.558594 C 287.832031 186.046875 293.125 180.75 299.640625 180.75 L 326.503906 180.75 C 333.011719 180.75 338.3125 186.046875 338.3125 192.558594 L 338.3125 211.207031 C 338.3125 217.71875 333.011719 223.015625 326.503906 223.015625 " fill-opacity="1" fill-rule="nonzero"/><path fill="#db6d6d" d="M 351.460938 279.835938 L 274.675781 279.835938 C 272.230469 279.835938 270.25 277.855469 270.25 275.414062 C 270.25 272.964844 272.230469 270.984375 274.675781 270.984375 L 351.460938 270.984375 C 353.910156 270.984375 355.894531 272.964844 355.894531 275.414062 C 355.894531 277.855469 353.910156 279.835938 351.460938 279.835938 " fill-opacity="1" fill-rule="nonzero"/><path fill="#db6d6d" d="M 351.460938 263.132812 L 274.675781 263.132812 C 272.230469 263.132812 270.25 261.148438 270.25 258.707031 C 270.25 256.257812 272.230469 254.277344 274.675781 254.277344 L 351.460938 254.277344 C 353.910156 254.277344 355.894531 256.257812 355.894531 258.707031 C 355.894531 261.148438 353.910156 263.132812 351.460938 263.132812 " fill-opacity="1" fill-rule="nonzero"/><path fill="#db6d6d" d="M 351.460938 246.425781 L 274.675781 246.425781 C 272.230469 246.425781 270.25 244.441406 270.25 242 C 270.25 239.550781 272.230469 237.570312 274.675781 237.570312 L 351.460938 237.570312 C 353.910156 237.570312 355.894531 239.550781 355.894531 242 C 355.894531 244.441406 353.910156 246.425781 351.460938 246.425781 " fill-opacity="1" fill-rule="nonzero"/><g clip-path="url(#ee85c037c2)"><path fill="#db6d6d" d="M 264.246094 132.066406 C 261.90625 132.066406 260.003906 133.96875 260.003906 136.3125 L 260.003906 324.277344 C 260.003906 326.617188 261.90625 328.523438 264.246094 328.523438 L 361.894531 328.523438 C 363.027344 328.523438 364.09375 328.082031 364.894531 327.277344 C 365.699219 326.476562 366.136719 325.410156 366.136719 324.277344 L 366.136719 136.3125 C 366.136719 133.96875 364.234375 132.066406 361.894531 132.066406 Z M 361.894531 337.382812 L 264.246094 337.382812 C 257.019531 337.382812 251.140625 331.5 251.140625 324.277344 L 251.140625 136.3125 C 251.140625 129.085938 257.019531 123.207031 264.246094 123.207031 L 361.894531 123.207031 C 369.117188 123.207031 374.996094 129.085938 374.996094 136.3125 L 374.996094 324.277344 C 375 327.773438 373.636719 331.066406 371.160156 333.542969 C 368.6875 336.019531 365.394531 337.382812 361.894531 337.382812 " fill-opacity="1" fill-rule="nonzero"/></g><g clip-path="url(#109bd5e85c)"><path fill="#db6d6d" d="M 266.566406 143.167969 C 266.585938 143 266.609375 142.828125 266.640625 142.660156 C 267.296875 139.070312 270.441406 136.507812 274.046875 136.371094 C 274.191406 136.363281 274.335938 136.363281 274.480469 136.363281 C 285.605469 136.363281 342.972656 136.355469 354.101562 136.371094 C 357.503906 136.375 359.988281 137.921875 361.421875 141.019531 C 362.652344 143.679688 362.058594 146.945312 360.125 149.113281 C 358.707031 150.703125 356.652344 151.597656 354.53125 151.683594 C 354.386719 151.691406 354.242188 151.691406 354.101562 151.691406 C 342.972656 151.691406 285.609375 151.703125 274.480469 151.6875 C 272.351562 151.683594 270.265625 151.007812 268.765625 149.449219 C 267.171875 147.789062 266.3125 145.457031 266.566406 143.167969 Z M 337.410156 137.476562 C 331.75 137.476562 279.847656 137.457031 274.183594 137.480469 C 269.773438 137.503906 266.671875 141.648438 267.878906 145.851562 C 268.699219 148.710938 271.257812 150.578125 274.378906 150.578125 C 285.574219 150.582031 343.007812 150.578125 354.207031 150.578125 C 354.382812 150.578125 354.5625 150.578125 354.734375 150.570312 C 358.625 150.433594 361.609375 146.671875 360.855469 142.855469 C 360.222656 139.660156 357.617188 137.484375 354.351562 137.476562 C 348.703125 137.464844 343.054688 137.472656 337.410156 137.472656 Z M 337.410156 137.476562 " fill-opacity="1" fill-rule="nonzero"/></g><path fill="#db6d6d" d="M 355.832031 145.796875 C 356.351562 146.3125 356.867188 146.816406 357.371094 147.324219 C 357.714844 147.675781 357.765625 148.007812 357.496094 148.238281 C 357.144531 148.539062 356.851562 148.367188 356.578125 148.085938 C 356.1875 147.683594 355.769531 147.308594 355.398438 146.890625 C 355.152344 146.609375 354.96875 146.597656 354.640625 146.789062 C 353.117188 147.683594 351.183594 147.386719 349.972656 146.117188 C 348.761719 144.851562 348.574219 142.898438 349.519531 141.425781 C 350.625 139.699219 352.910156 139.148438 354.675781 140.179688 C 356.46875 141.222656 357.101562 143.492188 356.109375 145.3125 C 356.027344 145.464844 355.9375 145.613281 355.832031 145.800781 Z M 350.015625 143.453125 C 350.007812 144.722656 350.867188 145.839844 352.074219 146.132812 C 352.703125 146.285156 353.355469 146.289062 353.886719 145.9375 C 354.378906 145.609375 354.871094 145.1875 355.175781 144.691406 C 355.761719 143.726562 355.53125 142.472656 354.757812 141.628906 C 354.003906 140.8125 352.8125 140.535156 351.765625 140.933594 C 350.714844 141.339844 350.027344 142.328125 350.019531 143.453125 Z M 350.015625 143.453125 " fill-opacity="1" fill-rule="nonzero"/></svg>