<?xml version="1.0" encoding="UTF-8" standalone="no" ?>
<!DOCTYPE svg PUBLIC "-//W3C//DTD SVG 1.1//EN" "http://www.w3.org/Graphics/SVG/1.1/DTD/svg11.dtd">
<svg xmlns="http://www.w3.org/2000/svg" xmlns:xlink="http://www.w3.org/1999/xlink" version="1.1" width="1080" height="1080" viewBox="0 0 1080 1080" xml:space="preserve">
<desc>Created with Fabric.js 5.2.4</desc>
<defs>
</defs>
<g transform="matrix(1 0 0 1 540 540)" id="e60cf7fc-a7c6-46c6-9b11-661925ff3e18"  >
<rect style="stroke: none; stroke-width: 1; stroke-dasharray: none; stroke-linecap: butt; stroke-dashoffset: 0; stroke-linejoin: miter; stroke-miterlimit: 4; fill: rgb(255,255,255); fill-rule: nonzero; opacity: 1; visibility: hidden;" vector-effect="non-scaling-stroke"  x="-540" y="-540" rx="0" ry="0" width="1080" height="1080" />
</g>
<g transform="matrix(1 0 0 1 540 540)" id="16f75775-e633-466d-b83b-70e720954f86"  >
</g>
<g transform="matrix(20.77 0 0 20.77 540 540)"  >
<path style="stroke: none; stroke-width: 1; stroke-dasharray: none; stroke-linecap: butt; stroke-dashoffset: 0; stroke-linejoin: miter; stroke-miterlimit: 4; fill: rgb(255,117,216); fill-rule: nonzero; opacity: 1;"  transform=" translate(-26.01, -20.97)" d="M 43.1094 16.3125 L 42.875 16 C 42.5625 16.0521 42.25 16.0521 41.9375 16 L 41.7031 16.3125 C 41.4948 16.6771 41.1823 16.9375 40.7656 17.0938 C 40.401 17.25 40.0104 17.276 39.5938 17.1719 C 38.5521 16.8073 37.6667 16.3125 36.9375 15.6875 C 36.5729 15.4271 36.3385 15.0885 36.2344 14.6719 C 36.1823 14.2031 36.2604 13.7604 36.4688 13.3438 L 36.7031 13.0312 C 36.4948 12.7708 36.3385 12.4844 36.2344 12.1719 L 35.5312 12.1719 C 35.0625 12.1719 34.6458 12.0417 34.2812 11.7812 C 33.9688 11.4688 33.7604 11.1042 33.6562 10.6875 C 33.4479 9.64583 33.4479 8.63021 33.6562 7.64062 C 33.7604 7.22396 33.9688 6.88542 34.2812 6.625 C 34.6458 6.3125 35.0625 6.15625 35.5312 6.15625 L 36.2344 6.15625 C 36.3385 5.84375 36.4948 5.55729 36.7031 5.29688 L 36.4688 4.90625 C 36.2604 4.54167 36.1823 4.15104 36.2344 3.73438 C 36.3385 3.26562 36.5469 2.875 36.8594 2.5625 C 37.6406 1.9375 38.526 1.44271 39.5156 1.07812 C 39.9323 0.921875 40.349 0.921875 40.7656 1.07812 C 41.1823 1.23438 41.4948 1.52083 41.7031 1.9375 L 41.9375 2.25 C 42.25 2.25 42.5625 2.25 42.875 2.25 L 43.1094 1.9375 C 43.3177 1.52083 43.6302 1.23438 44.0469 1.07812 C 44.4635 0.921875 44.8802 0.921875 45.2969 1.07812 C 46.2865 1.39062 47.1719 1.88542 47.9531 2.5625 C 48.2656 2.875 48.4479 3.26562 48.5 3.73438 C 48.6042 4.15104 48.5521 4.56771 48.3438 4.98438 L 48.1094 5.29688 C 48.3177 5.55729 48.474 5.84375 48.5781 6.15625 L 49.0469 6.15625 C 49.4635 6.15625 49.8281 6.3125 50.1406 6.625 C 50.5052 6.88542 50.7396 7.22396 50.8438 7.64062 C 51.0521 8.63021 51.0521 9.64583 50.8438 10.6875 C 50.7396 11.1042 50.5052 11.4688 50.1406 11.7812 C 49.8281 12.0417 49.4375 12.1719 48.9688 12.1719 L 48.5781 12.1719 C 48.474 12.4844 48.3177 12.7708 48.1094 13.0312 L 48.3438 13.3438 C 48.5521 13.7604 48.6042 14.2031 48.5 14.6719 C 48.4479 15.0885 48.2396 15.4531 47.875 15.7656 C 47.1458 16.3385 46.2604 16.8073 45.2188 17.1719 C 44.8021 17.276 44.3854 17.25 43.9688 17.0938 C 43.6042 16.9375 43.3177 16.6771 43.1094 16.3125 Z M 44.0469 13.6562 L 44.8281 15.0625 C 45.349 14.8542 45.8438 14.5677 46.3125 14.2031 L 45.5312 12.7969 L 46 12.25 C 46.3646 11.7812 46.651 11.2865 46.8594 10.7656 L 47.0938 9.98438 L 48.7344 9.98438 C 48.8385 9.41146 48.8385 8.86458 48.7344 8.34375 L 47.0938 8.34375 L 46.8594 7.5625 C 46.651 7.04167 46.3646 6.54688 46 6.07812 L 45.5312 5.53125 L 46.3125 4.04688 C 45.8958 3.73438 45.401 3.47396 44.8281 3.26562 L 44.0469 4.67188 L 43.2656 4.51562 C 42.6927 4.41146 42.1198 4.41146 41.5469 4.51562 L 40.7656 4.67188 L 39.9844 3.26562 C 39.4635 3.47396 38.9688 3.73438 38.5 4.04688 L 39.3594 5.53125 L 38.8125 6.07812 C 38.4479 6.54688 38.1615 7.04167 37.9531 7.5625 L 37.7188 8.34375 L 36.0781 8.34375 C 35.974 8.86458 35.974 9.41146 36.0781 9.98438 L 37.7188 9.98438 L 37.9531 10.6875 C 38.1615 11.2604 38.4479 11.7812 38.8125 12.25 L 39.3594 12.7969 L 38.5 14.2031 C 38.9167 14.5677 39.4115 14.8542 39.9844 15.0625 L 40.7656 13.6562 L 41.5469 13.8125 C 42.1198 13.9167 42.6927 13.9167 43.2656 13.8125 L 44.0469 13.6562 Z M 12.3281 36.4688 L 12.3281 34.0469 C 11.3385 33.6302 10.401 33.0833 9.51562 32.4062 L 7.32812 33.6562 C 6.96354 33.8646 6.54688 33.9427 6.07812 33.8906 C 5.66146 33.7865 5.32292 33.5781 5.0625 33.2656 C 4.07292 32.224 3.26562 31.1823 2.64062 30.1406 C 2.06771 29.099 1.54688 27.849 1.07812 26.3906 C 0.973958 25.974 1 25.5573 1.15625 25.1406 C 1.3125 24.724 1.57292 24.4115 1.9375 24.2031 L 4.04688 22.9531 C 3.94271 21.8594 3.94271 20.7656 4.04688 19.6719 L 1.9375 18.4219 C 1.57292 18.2135 1.3125 17.901 1.15625 17.4844 C 1 17.0677 0.973958 16.651 1.07812 16.2344 C 1.54688 14.776 2.06771 13.526 2.64062 12.4844 C 3.26562 11.4427 4.07292 10.401 5.0625 9.35938 C 5.32292 9.04688 5.66146 8.86458 6.07812 8.8125 C 6.54688 8.70833 6.96354 8.76042 7.32812 8.96875 L 9.51562 10.2188 C 10.349 9.59375 11.2865 9.04688 12.3281 8.57812 L 12.3281 6.15625 C 12.3281 5.6875 12.4583 5.29688 12.7188 4.98438 C 13.0312 4.61979 13.3958 4.38542 13.8125 4.28125 C 15.2188 3.96875 16.5208 3.8125 17.7188 3.8125 C 18.9167 3.8125 20.2708 3.96875 21.7812 4.28125 C 22.1979 4.38542 22.5365 4.61979 22.7969 4.98438 C 23.1094 5.29688 23.2656 5.6875 23.2656 6.15625 L 23.2656 8.57812 C 24.2552 8.99479 25.1927 9.54167 26.0781 10.2188 L 28.1875 8.96875 C 28.6042 8.76042 29.0208 8.70833 29.4375 8.8125 C 29.9062 8.86458 30.2708 9.04688 30.5312 9.35938 C 31.5729 10.5052 32.4062 11.625 33.0312 12.7188 C 33.6562 13.7604 34.1771 14.9323 34.5938 16.2344 C 34.75 16.651 34.75 17.0677 34.5938 17.4844 C 34.4375 17.901 34.1771 18.2135 33.8125 18.4219 L 31.8594 19.6719 C 32.0156 20.7656 32.0156 21.8594 31.8594 22.9531 L 34.0469 24.3594 C 34.4115 24.5677 34.6719 24.8542 34.8281 25.2188 C 34.9844 25.5833 35.0104 25.9479 34.9062 26.3125 C 34.4896 28.2917 33.0312 30.6094 30.5312 33.2656 C 30.2188 33.5781 29.8542 33.7865 29.4375 33.8906 C 29.0208 33.9427 28.6042 33.8646 28.1875 33.6562 L 26.0781 32.4062 C 25.1927 33.0312 24.2552 33.5781 23.2656 34.0469 L 23.2656 36.5469 C 23.2656 36.9635 23.1094 37.3281 22.7969 37.6406 C 22.5365 38.0052 22.1979 38.2396 21.7812 38.3438 C 20.3229 38.6562 18.9948 38.8125 17.7969 38.8125 C 16.599 38.8125 15.2708 38.6562 13.8125 38.3438 C 13.3958 38.2396 13.0312 38.0052 12.7188 37.6406 C 12.4583 37.3281 12.3281 36.9375 12.3281 36.4688 Z M 14.8281 36 C 16.8073 36.4167 18.7865 36.4167 20.7656 36 L 20.7656 32.25 L 21.5469 32.0156 C 22.901 31.5469 24.099 30.8438 25.1406 29.9062 L 25.8438 29.3594 L 29.0469 31.2344 C 30.7656 29.3073 31.8594 27.6146 32.3281 26.1562 L 29.125 24.2812 L 29.2812 23.3438 C 29.5417 21.9896 29.5417 20.6094 29.2812 19.2031 L 29.125 18.3438 L 32.3281 16.4688 C 31.8594 15.0104 30.7656 13.3177 29.0469 11.3906 L 25.8438 13.2656 L 25.1406 12.7188 C 24.099 11.7812 22.901 11.0781 21.5469 10.6094 L 20.7656 10.2969 L 20.7656 6.625 C 18.7865 6.20833 16.8073 6.20833 14.8281 6.625 L 14.8281 10.2969 L 14.0469 10.6094 C 12.6927 11.0781 11.4948 11.7812 10.4531 12.7188 L 9.75 13.2656 L 6.54688 11.3906 C 5.19271 12.901 4.20312 14.6198 3.57812 16.5469 L 6.78125 18.3438 L 6.625 19.2031 C 6.36458 20.6094 6.36458 22.0156 6.625 23.4219 L 6.78125 24.2812 L 3.57812 26.1562 C 4.20312 28.0312 5.19271 29.724 6.54688 31.2344 L 9.75 29.3594 L 10.4531 29.9062 C 11.4948 30.8438 12.6927 31.5469 14.0469 32.0156 L 14.8281 32.3281 L 14.8281 36 Z M 17.875 27.7969 C 16.0521 27.7969 14.5156 27.1719 13.2656 25.9219 C 12.0156 24.6198 11.3906 23.0833 11.3906 21.3125 C 11.3906 19.5417 12.0156 18.0312 13.2656 16.7812 C 14.5156 15.4792 16.026 14.8281 17.7969 14.8281 C 19.6198 14.8281 21.1562 15.4792 22.4062 16.7812 C 23.7083 18.0312 24.3594 19.5417 24.3594 21.3125 C 24.3594 23.0833 23.7083 24.6198 22.4062 25.9219 C 21.1562 27.1719 19.6458 27.7969 17.875 27.7969 Z M 17.875 17.3281 C 16.7812 17.3281 15.8438 17.7188 15.0625 18.5 C 14.2812 19.2812 13.8906 20.2188 13.8906 21.3125 C 13.8906 22.4062 14.2812 23.3438 15.0625 24.125 C 15.8438 24.9062 16.7812 25.2969 17.875 25.2969 C 18.9688 25.2969 19.9062 24.9062 20.6875 24.125 C 21.4688 23.3438 21.8594 22.4062 21.8594 21.3125 C 21.8594 20.2188 21.4688 19.2812 20.6875 18.5 C 19.9062 17.7188 18.9688 17.3281 17.875 17.3281 Z M 43.1094 40.1406 L 42.875 39.8281 C 42.5625 39.8281 42.25 39.8281 41.9375 39.8281 L 41.7031 40.1406 C 41.4948 40.5052 41.1823 40.7396 40.7656 40.8438 C 40.401 41 40.0104 41.026 39.5938 40.9219 C 38.5521 40.6094 37.6667 40.1406 36.9375 39.5156 C 36.5729 39.2031 36.3385 38.8125 36.2344 38.3438 C 36.1823 37.9271 36.2604 37.5104 36.4688 37.0938 L 36.7031 36.7812 C 36.4948 36.5208 36.3385 36.2604 36.2344 36 L 35.5312 36 C 35.0625 36 34.6458 35.8698 34.2812 35.6094 C 33.9688 35.2969 33.7604 34.9062 33.6562 34.4375 C 33.4479 33.4479 33.4479 32.4323 33.6562 31.3906 C 33.7604 30.974 33.9688 30.6354 34.2812 30.375 C 34.6458 30.0625 35.0625 29.9062 35.5312 29.9062 L 36.2344 29.9062 C 36.3385 29.5938 36.4948 29.3073 36.7031 29.0469 L 36.4688 28.7344 C 36.2604 28.3177 36.1823 27.901 36.2344 27.4844 C 36.3385 27.0156 36.5469 26.651 36.8594 26.3906 C 37.6406 25.7135 38.526 25.2188 39.5156 24.9062 C 39.9323 24.75 40.349 24.75 40.7656 24.9062 C 41.1823 25.0625 41.4948 25.3229 41.7031 25.6875 L 41.9375 26.0781 C 42.25 26.026 42.5625 26.026 42.875 26.0781 L 43.1094 25.6875 C 43.3177 25.3229 43.6302 25.0625 44.0469 24.9062 C 44.4635 24.75 44.8802 24.75 45.2969 24.9062 C 46.2865 25.2188 47.1719 25.7135 47.9531 26.3906 C 48.2656 26.651 48.4479 27.0156 48.5 27.4844 C 48.6042 27.901 48.5521 28.3177 48.3438 28.7344 L 48.1094 29.0469 C 48.3177 29.3073 48.474 29.5938 48.5781 29.9062 L 49.0469 29.9062 C 49.4635 29.9062 49.8281 30.0625 50.1406 30.375 C 50.5052 30.6354 50.7396 31 50.8438 31.4688 C 51.0521 32.4583 51.0521 33.4479 50.8438 34.4375 C 50.7396 34.9062 50.5052 35.2969 50.1406 35.6094 C 49.8281 35.8698 49.4375 36 48.9688 36 L 48.5781 36 C 48.474 36.2604 48.3177 36.5208 48.1094 36.7812 L 48.3438 37.0938 C 48.5521 37.5104 48.6042 37.9271 48.5 38.3438 C 48.4479 38.8125 48.2396 39.2031 47.875 39.5156 C 47.1458 40.1406 46.2604 40.6094 45.2188 40.9219 C 44.8021 41.026 44.3854 41 43.9688 40.8438 C 43.6042 40.7396 43.3177 40.5052 43.1094 40.1406 Z M 44.0469 37.4062 L 44.8281 38.8125 C 45.349 38.6042 45.8438 38.3438 46.3125 38.0312 L 45.5312 36.5469 L 46 36 C 46.3646 35.5312 46.651 35.0365 46.8594 34.5156 L 47.0938 33.7344 L 48.7344 33.7344 C 48.8385 33.2135 48.8385 32.6667 48.7344 32.0938 L 47.0938 32.0938 L 46.8594 31.3906 C 46.651 30.8177 46.3646 30.3229 46 29.9062 L 45.5312 29.2812 L 46.3125 27.875 C 45.8958 27.5104 45.401 27.224 44.8281 27.0156 L 44.0469 28.4219 L 43.2656 28.2656 C 42.6927 28.1615 42.1198 28.1615 41.5469 28.2656 L 40.7656 28.4219 L 39.9844 27.0156 C 39.4635 27.224 38.9688 27.5104 38.5 27.875 L 39.3594 29.2812 L 38.8125 29.9062 C 38.4479 30.375 38.1615 30.8698 37.9531 31.3906 L 37.7188 32.0938 L 36.0781 32.0938 C 35.974 32.6667 35.974 33.2135 36.0781 33.7344 L 37.7188 33.7344 L 37.9531 34.5156 C 38.1615 35.0365 38.4479 35.5312 38.8125 36 L 39.3594 36.5469 L 38.5 38.0312 C 38.9167 38.3438 39.4115 38.6042 39.9844 38.8125 L 40.7656 37.4062 L 41.5469 37.5625 C 42.1198 37.6667 42.6927 37.6667 43.2656 37.5625 L 44.0469 37.4062 Z M 44.75 32.875 C 44.75 32.1979 44.4896 31.625 43.9688 31.1562 C 43.5 30.6354 42.9271 30.375 42.25 30.375 C 41.5729 30.375 40.974 30.6354 40.4531 31.1562 C 39.9844 31.625 39.75 32.1979 39.75 32.875 C 39.75 33.5521 39.9844 34.151 40.4531 34.6719 C 40.974 35.1406 41.5729 35.375 42.25 35.375 C 42.9271 35.375 43.5 35.1406 43.9688 34.6719 C 44.4896 34.151 44.75 33.5521 44.75 32.875 Z M 44.75 9.125 C 44.75 8.39583 44.4896 7.79688 43.9688 7.32812 C 43.5 6.85938 42.9271 6.625 42.25 6.625 C 41.5729 6.625 40.974 6.85938 40.4531 7.32812 C 39.9844 7.79688 39.75 8.39583 39.75 9.125 C 39.75 9.80208 39.9844 10.401 40.4531 10.9219 C 40.974 11.3906 41.5729 11.625 42.25 11.625 C 42.9271 11.625 43.5 11.3906 43.9688 10.9219 C 44.4896 10.401 44.75 9.80208 44.75 9.125 Z" stroke-linecap="round" />
</g>
</svg>