<?xml version="1.0" encoding="UTF-8" standalone="no" ?>
<!DOCTYPE svg PUBLIC "-//W3C//DTD SVG 1.1//EN" "http://www.w3.org/Graphics/SVG/1.1/DTD/svg11.dtd">
<svg xmlns="http://www.w3.org/2000/svg" xmlns:xlink="http://www.w3.org/1999/xlink" version="1.1" width="1080" height="1080" viewBox="0 0 1080 1080" xml:space="preserve">
<desc>Created with Fabric.js 5.2.4</desc>
<defs>
</defs>
<g transform="matrix(1 0 0 1 540 540)" id="3f60cd68-d2dd-4a75-83d3-39dd3c37e060"  >
<rect style="stroke: none; stroke-width: 1; stroke-dasharray: none; stroke-linecap: butt; stroke-dashoffset: 0; stroke-linejoin: miter; stroke-miterlimit: 4; fill: rgb(255,255,255); fill-rule: nonzero; opacity: 1; visibility: hidden;" vector-effect="non-scaling-stroke"  x="-540" y="-540" rx="0" ry="0" width="1080" height="1080" />
</g>
<g transform="matrix(1 0 0 1 540 540)" id="d861dca4-2b03-410a-863a-7f028f52e36a"  >
</g>
<g transform="matrix(27 0 0 27 540 540)"  >
<path style="stroke: none; stroke-width: 1; stroke-dasharray: none; stroke-linecap: butt; stroke-dashoffset: 0; stroke-linejoin: miter; stroke-miterlimit: 4; fill: rgb(255,96,128); fill-rule: nonzero; opacity: 1;"  transform=" translate(-20, -18)" d="M 2.5 2.53125 L 2.5 0.96875 C 2.5 0.864583 2.55208 0.760417 2.65625 0.65625 C 2.76042 0.552083 2.86458 0.5 2.96875 0.5 L 12.0312 0.5 C 12.1354 0.5 12.2396 0.552083 12.3438 0.65625 C 12.4479 0.760417 12.5 0.864583 12.5 0.96875 L 12.5 2.53125 C 12.5 2.63542 12.4479 2.73958 12.3438 2.84375 C 12.2396 2.94792 12.1354 3 12.0312 3 L 2.96875 3 C 2.86458 3 2.76042 2.94792 2.65625 2.84375 C 2.55208 2.73958 2.5 2.63542 2.5 2.53125 Z M 29.375 20.5 C 29.375 18.7812 28.9583 17.2188 28.125 15.8125 C 27.2917 14.3542 26.1458 13.2083 24.6875 12.375 C 23.2812 11.5417 21.7188 11.125 20 11.125 C 18.2812 11.125 16.6927 11.5417 15.2344 12.375 C 13.8281 13.2083 12.7083 14.3542 11.875 15.8125 C 11.0417 17.2188 10.625 18.7812 10.625 20.5 C 10.625 22.2188 11.0417 23.8073 11.875 25.2656 C 12.7083 26.6719 13.8281 27.7917 15.2344 28.625 C 16.6927 29.4583 18.2812 29.875 20 29.875 C 21.7188 29.875 23.2812 29.4583 24.6875 28.625 C 26.1458 27.7917 27.2917 26.6719 28.125 25.2656 C 28.9583 23.8073 29.375 22.2188 29.375 20.5 Z M 26.875 20.5 C 26.875 22.375 26.1979 23.9896 24.8438 25.3438 C 23.4896 26.6979 21.875 27.375 20 27.375 C 18.125 27.375 16.5104 26.6979 15.1562 25.3438 C 13.8021 23.9896 13.125 22.375 13.125 20.5 C 13.125 18.625 13.8021 17.0104 15.1562 15.6562 C 16.5104 14.3021 18.125 13.625 20 13.625 C 21.875 13.625 23.4896 14.3021 24.8438 15.6562 C 26.1979 17.0104 26.875 18.625 26.875 20.5 Z M 17.5 20.5 C 17.5 19.8229 17.7344 19.25 18.2031 18.7812 C 18.724 18.2604 19.3229 18 20 18 C 20.3646 18 20.651 17.8958 20.8594 17.6875 C 21.1198 17.4271 21.25 17.1146 21.25 16.75 C 21.25 16.3854 21.1198 16.099 20.8594 15.8906 C 20.651 15.6302 20.3646 15.5 20 15.5 C 18.6458 15.5 17.474 15.9948 16.4844 16.9844 C 15.4948 17.974 15 19.1458 15 20.5 C 15 20.8646 15.1042 21.1771 15.3125 21.4375 C 15.5729 21.6458 15.8854 21.75 16.25 21.75 C 16.6146 21.75 16.901 21.6458 17.1094 21.4375 C 17.3698 21.1771 17.5 20.8646 17.5 20.5 Z M 40 4.25 L 40 31.75 C 40 32.7917 39.6354 33.6771 38.9062 34.4062 C 38.1771 35.1354 37.2917 35.5 36.25 35.5 L 3.75 35.5 C 2.70833 35.5 1.82292 35.1354 1.09375 34.4062 C 0.364583 33.6771 0 32.7917 0 31.75 L 0 9.25 C 0 8.20833 0.364583 7.32292 1.09375 6.59375 C 1.82292 5.86458 2.70833 5.5 3.75 5.5 L 14.375 5.5 L 17.0312 1.98438 C 17.7604 0.994792 18.75 0.5 20 0.5 L 36.25 0.5 C 37.2917 0.5 38.1771 0.864583 38.9062 1.59375 C 39.6354 2.32292 40 3.20833 40 4.25 Z M 17.5 5.5 L 36.25 5.5 C 36.6667 5.5 37.0833 5.57812 37.5 5.73438 L 37.5 4.25 C 37.5 3.88542 37.3698 3.59896 37.1094 3.39062 C 36.901 3.13021 36.6146 3 36.25 3 L 20 3 C 19.5833 3 19.2448 3.15625 18.9844 3.46875 L 17.5 5.5 Z M 37.5 9.25 C 37.5 8.88542 37.3698 8.59896 37.1094 8.39062 C 36.901 8.13021 36.6146 8 36.25 8 L 3.75 8 C 3.38542 8 3.07292 8.13021 2.8125 8.39062 C 2.60417 8.59896 2.5 8.88542 2.5 9.25 L 2.5 31.75 C 2.5 32.1146 2.60417 32.4271 2.8125 32.6875 C 3.07292 32.8958 3.38542 33 3.75 33 L 36.25 33 C 36.6146 33 36.901 32.8958 37.1094 32.6875 C 37.3698 32.4271 37.5 32.1146 37.5 31.75 L 37.5 9.25 Z" stroke-linecap="round" />
</g>
</svg>