<?xml version="1.0" encoding="UTF-8" standalone="no" ?>
<!DOCTYPE svg PUBLIC "-//W3C//DTD SVG 1.1//EN" "http://www.w3.org/Graphics/SVG/1.1/DTD/svg11.dtd">
<svg xmlns="http://www.w3.org/2000/svg" xmlns:xlink="http://www.w3.org/1999/xlink" version="1.1" width="1080" height="1080" viewBox="0 0 1080 1080" xml:space="preserve">
<desc>Created with Fabric.js 5.2.4</desc>
<defs>
</defs>
<g transform="matrix(1 0 0 1 540 540)" id="9c904d25-e74f-42ad-9fd7-c39926e9213d"  >
<rect style="stroke: none; stroke-width: 1; stroke-dasharray: none; stroke-linecap: butt; stroke-dashoffset: 0; stroke-linejoin: miter; stroke-miterlimit: 4; fill: rgb(255,255,255); fill-rule: nonzero; opacity: 1; visibility: hidden;" vector-effect="non-scaling-stroke"  x="-540" y="-540" rx="0" ry="0" width="1080" height="1080" />
</g>
<g transform="matrix(1 0 0 1 540 540)" id="ca9a6f41-0b00-41cb-ab64-b33a157bc302"  >
</g>
<g transform="matrix(24 0 0 24 540 540)"  >
<path style="stroke: none; stroke-width: 1; stroke-dasharray: none; stroke-linecap: butt; stroke-dashoffset: 0; stroke-linejoin: miter; stroke-miterlimit: 4; fill: rgb(38,159,255); fill-rule: nonzero; opacity: 1;"  transform=" translate(-22.5, -21)" d="M 18.3594 41 L 15.3125 40.0625 C 15.1562 40.0104 15.026 39.9062 14.9219 39.75 C 14.8698 39.6458 14.8438 39.4896 14.8438 39.2812 L 25.8594 1.46875 C 25.9115 1.3125 26.0156 1.18229 26.1719 1.07812 C 26.3281 0.973958 26.4844 0.947917 26.6406 1 L 29.6875 1.9375 C 29.8438 1.9375 29.9479 2.01562 30 2.17188 C 30.1042 2.32812 30.1562 2.51042 30.1562 2.71875 L 19.1406 40.5312 C 19.0885 40.6875 18.9844 40.8177 18.8281 40.9219 C 18.6719 41.026 18.5156 41.0521 18.3594 41 Z M 11.875 31.5469 L 13.9844 29.2812 C 14.0885 29.125 14.1406 28.9688 14.1406 28.8125 C 14.1406 28.6042 14.0625 28.4479 13.9062 28.3438 L 5.625 21 L 13.9062 13.6562 C 14.0625 13.5521 14.1406 13.4219 14.1406 13.2656 C 14.1406 13.0573 14.0885 12.875 13.9844 12.7188 L 11.875 10.4531 C 11.7188 10.349 11.5625 10.2969 11.4062 10.2969 C 11.25 10.2969 11.0938 10.349 10.9375 10.4531 L 0.234375 20.5312 C 0.078125 20.6875 0 20.8438 0 21 C 0 21.1562 0.078125 21.3125 0.234375 21.4688 L 10.9375 31.5469 C 11.0938 31.651 11.25 31.7031 11.4062 31.7031 C 11.5625 31.7031 11.7188 31.651 11.875 31.5469 Z M 34.0625 31.5469 L 44.7656 21.4688 C 44.9219 21.3125 45 21.1562 45 21 C 45 20.8438 44.9219 20.6875 44.7656 20.5312 L 34.0625 10.4531 C 33.9062 10.349 33.75 10.2969 33.5938 10.2969 C 33.4375 10.2969 33.2812 10.349 33.125 10.4531 L 31.0156 12.7188 C 30.9115 12.875 30.8594 13.0573 30.8594 13.2656 C 30.8594 13.4219 30.9375 13.5521 31.0938 13.6562 L 39.375 21 L 31.0938 28.3438 C 30.9375 28.4479 30.8594 28.6042 30.8594 28.8125 C 30.8594 28.9688 30.9115 29.125 31.0156 29.2812 L 33.125 31.5469 C 33.2812 31.651 33.4375 31.7031 33.5938 31.7031 C 33.75 31.7031 33.9062 31.651 34.0625 31.5469 Z" stroke-linecap="round" />
</g>
</svg>